<svg width="320" height="282" viewBox="0 0 320 282" fill="none" xmlns="http://www.w3.org/2000/svg">
<foreignObject x="-24" y="-24" width="367.193" height="329.713"><div xmlns="http://www.w3.org/1999/xhtml" style="backdrop-filter:blur(12px);clip-path:url(#bgblur_0_786_525_clip_path);height:100%;width:100%"></div></foreignObject><g data-figma-bg-blur-radius="24">
<rect x="0.564721" y="40.5127" width="287.038" height="243" rx="11.5" transform="rotate(-8 0.564721 40.5127)" fill="#0A0E3C" fill-opacity="0.6"/>
<rect x="0.564721" y="40.5127" width="287.038" height="243" rx="11.5" transform="rotate(-8 0.564721 40.5127)" stroke="url(#paint0_linear_786_525)"/>
<path fill-rule="evenodd" clip-rule="evenodd" d="M131.461 146.291L121.997 140.635C120.743 139.885 120.334 138.244 121.089 136.994L121.997 135.491C126.082 128.728 119.935 120.451 112.252 122.366L110.546 122.792C109.126 123.146 107.673 122.277 107.32 120.864L104.66 110.195C104.308 108.782 105.183 107.333 106.603 106.979L108.315 106.552C115.998 104.636 117.539 94.4429 110.757 90.3885L109.25 89.488C107.996 88.7383 107.587 87.0978 108.343 85.847L114.043 76.4099C114.798 75.1591 116.447 74.7482 117.701 75.4978L119.207 76.3983C125.99 80.4521 134.314 74.3125 132.408 66.6651L131.977 64.9623C131.625 63.5493 132.5 62.1 133.92 61.7461L144.639 59.0736C146.058 58.7196 147.512 59.5883 147.864 61.0013L148.294 62.7041C150.201 70.3513 160.433 71.8645 164.519 65.1008L165.426 63.5986C166.182 62.3478 167.83 61.9369 169.084 62.6865L178.548 68.3429C179.802 69.0926 180.211 70.7331 179.455 71.984L178.543 73.4875C174.457 80.251 180.604 88.5281 188.287 86.6125L189.999 86.1857C191.419 85.8317 192.872 86.7004 193.224 88.1134L195.885 98.7826C196.237 100.196 195.361 101.645 193.942 101.999L192.23 102.426C189.779 103.037 187.811 104.545 186.648 106.606C181.502 107.416 176.577 108.864 171.857 110.951C173.001 107.203 173.176 103.106 172.16 99.0313C169.161 87.0021 156.93 79.6918 144.845 82.7049C132.76 85.7181 125.393 97.9148 128.392 109.944C130.968 120.274 140.351 127.126 150.602 126.947C147.36 130.819 144.629 135.087 142.478 139.642C139.827 139.972 137.485 141.472 136.03 143.881L135.123 145.388C134.36 146.63 132.717 147.039 131.463 146.29L131.461 146.291ZM193.602 156.222C194.384 156.027 195.165 155.945 195.929 155.974L205.184 146.139C206.144 145.119 207.843 146.134 207.387 147.456L203.003 160.202C205.776 165.025 203.181 171.243 197.683 172.614C193.137 173.747 188.538 170.998 187.41 166.473C186.286 161.942 189.056 157.356 193.602 156.222ZM194.959 161.663C193.433 162.043 192.501 163.585 192.88 165.104C193.259 166.623 194.805 167.547 196.331 167.166C197.857 166.786 198.788 165.244 198.409 163.725C198.031 162.206 196.49 161.281 194.959 161.663ZM248.851 151.149C246.614 142.178 242.264 134.287 236.462 127.869L220.05 143.653C223.177 147.292 225.521 151.687 226.759 156.657L248.851 151.149ZM233.74 125.062L217.328 140.846C214.158 137.96 210.435 135.735 206.385 134.305L212.69 112.48C220.563 115.042 227.774 119.348 233.74 125.062ZM208.923 111.413C201.099 109.479 192.739 109.242 184.365 111.015L189.852 133.025C194.197 132.218 198.523 132.331 202.616 133.233L208.923 111.413ZM180.541 111.968C172.314 114.329 165.043 118.463 159.043 123.843L174.856 140.154C178.047 137.436 181.814 135.305 186.025 133.985L180.541 111.968ZM156.222 126.571C150.472 132.524 146.13 139.711 143.54 147.558L165.441 153.789C166.886 149.753 169.128 146.04 172.027 142.878L156.222 126.571ZM142.454 151.308L164.355 157.54C163.303 162.22 163.298 167.208 164.536 172.171L142.445 177.679C140.208 168.709 140.344 159.698 142.454 151.308Z" fill="white"/>
</g>
<defs>
<clipPath id="bgblur_0_786_525_clip_path" transform="translate(24 24)"><rect x="0.564721" y="40.5127" width="287.038" height="243" rx="11.5" transform="rotate(-8 0.564721 40.5127)"/>
</clipPath><linearGradient id="paint0_linear_786_525" x1="144.019" y1="40.0872" x2="144.019" y2="284.087" gradientUnits="userSpaceOnUse">
<stop stop-color="#FAFAFA" stop-opacity="0.2"/>
<stop offset="0.065" stop-color="#FAFAFA" stop-opacity="0.1"/>
</linearGradient>
</defs>
</svg>
