<svg width="236" height="197" viewBox="0 0 236 197" fill="none" xmlns="http://www.w3.org/2000/svg">
<path d="M49.3415 69.6191C42.9039 71.1534 39.0792 77.0365 40.8061 82.7687C42.531 88.4946 49.1452 91.8965 55.5898 90.3606C62.0273 88.8263 65.852 82.9432 64.1252 77.211C62.3984 71.4788 55.779 68.0849 49.3415 69.6191ZM54.4021 86.4933C54.4021 86.4933 45.5214 84.0155 44.2612 79.7821C43.0011 75.5487 48.5383 74.9228 51.486 76.7129C53.0467 73.8484 58.2033 71.9593 59.4616 76.1863C60.7217 80.4197 54.4021 86.4933 54.4021 86.4933Z" fill="white"/>
<path d="M196.232 61.2603L209.947 51.4504L204.869 49.9052L195.649 58.1925L196.232 61.2603Z" fill="white"/>
<path d="M195.248 43.0372L191.594 40.3849L186.993 53.1693L189.531 53.1977L195.248 43.0372Z" fill="white"/>
<path d="M180.847 39.5035L177.324 41.2325L177.642 51.6926L179.992 50.843L180.847 39.5035Z" fill="white"/>
<path d="M205.692 74.4597L206.649 76.5558L219.393 77.3517L217.467 74.2269L205.692 74.4597Z" fill="white"/>
<path d="M214.59 62.1121L202.634 66.1202L202.404 68.3712L217.176 65.6184L214.59 62.1121Z" fill="white"/>
<path d="M189.592 101.523C188.753 101.251 187.889 100.945 187.013 100.602C179.915 97.8067 172.055 92.7613 164.888 86.3921C157.716 80.0311 152.022 73.0483 148.865 66.7414C148.478 65.958 148.126 65.193 147.824 64.4429C147.214 66.7171 146.475 68.9142 145.61 71.0202L159.017 115.526C167.508 109.42 177.454 104.119 189.592 101.523Z" fill="white"/>
<path d="M187.822 65.9449C180.794 59.7112 173.112 54.7784 166.2 52.0467C158.902 49.1648 153.192 49.0909 150.122 51.8232C147.054 54.5619 147.159 59.6365 150.408 66.124C153.484 72.2622 159.054 79.0859 166.08 85.3134C173.108 91.5471 180.79 96.4799 187.702 99.2115C195 102.093 200.711 102.167 203.78 99.4351C206.848 96.6964 206.743 91.6218 203.494 85.1343C200.413 79.0041 194.852 72.185 187.822 65.9449ZM201.912 97.785C199.703 99.7532 194.914 99.4933 188.771 97.0771C182.152 94.4644 174.751 89.7074 167.948 83.6697C161.146 77.6315 155.774 71.0636 152.82 65.1801C150.085 59.7218 149.786 55.4614 151.989 53.495C154.198 51.5268 158.987 51.7866 165.13 54.2028C171.749 56.8155 179.15 61.5725 185.953 67.6103C192.755 73.6485 198.127 80.2164 201.081 86.0999C203.816 91.5582 204.122 95.8168 201.912 97.785Z" fill="white"/>
<path d="M180.674 72.3169C178.588 70.4697 176.321 69.0027 174.286 68.2076C172.404 67.4639 170.935 67.3896 170.252 67.9902C169.571 68.597 169.669 69.9008 170.506 71.5741C171.413 73.3789 173.057 75.392 175.146 77.2454C177.232 79.0925 179.499 80.5596 181.534 81.3547C183.416 82.0984 184.885 82.1726 185.568 81.5721C186.248 80.9653 186.151 79.6615 185.314 77.9882C184.414 76.1817 182.762 74.1703 180.674 72.3169Z" fill="white"/>
<path d="M123.405 30.1671L65.984 43.8524C61.9067 44.8241 59.4857 48.5538 60.5782 52.1804L93.3765 161.055C94.469 164.681 98.6622 166.834 102.739 165.863L160.168 152.176C164.245 151.204 166.666 147.474 165.574 143.848L132.767 34.9688C131.676 31.3485 127.483 29.1954 123.405 30.1671ZM161.735 140.458C162.742 143.802 160.511 147.23 156.759 148.125L132.86 153.82C133.244 146.797 132.371 139.676 131.577 134.954C130.209 135.644 128.81 136.153 127.368 136.496C125.262 136.998 123.215 137.089 121.34 136.976L126.846 155.253L126.288 155.386L120.729 136.932C119.134 136.794 117.665 136.517 116.382 136.23C114.775 135.872 112.819 135.968 110.565 136.505C110.31 136.566 110.056 136.626 109.812 136.698C111.402 140.617 115.183 149.194 120.633 156.726L103.405 160.832C99.6456 161.728 95.7909 159.744 94.7855 156.406L64.7353 56.6794C63.728 53.3357 65.9595 49.9071 69.7117 49.0128L85.1165 45.3414L85.7868 47.5664C86.1276 48.6978 87.4376 49.3758 88.7165 49.0709L107.937 44.4901C109.393 44.1431 110.264 42.8106 109.872 41.5096L109.289 39.5737L123.054 36.293C126.813 35.3971 130.668 37.3819 131.674 40.7193L161.728 140.459L161.735 140.458Z" fill="white"/>
<path d="M76.7739 140.362L57.8282 144.878C55.9273 145.331 54.7997 147.068 55.309 148.759L59.1982 161.669C59.7075 163.359 61.6607 164.362 63.5615 163.909L82.5 159.396C84.4009 158.943 85.5285 157.205 85.0192 155.515L81.1301 142.605C80.6278 140.912 78.6747 139.909 76.7739 140.362ZM66.0841 158.579L62.9961 159.315L61.9074 155.701L64.9954 154.965L66.0841 158.579ZM70.861 157.441L67.773 158.177L65.9458 152.111L69.0338 151.375L70.861 157.441ZM75.6378 156.302L72.5498 157.038L70.1565 149.094L73.2445 148.358L75.6378 156.302ZM80.4217 155.162L77.3338 155.898L74.0922 145.138L77.1802 144.402L80.4217 155.162Z" fill="white"/>
<path d="M64.4437 120.599L60.4102 106.807C59.8941 105.044 57.8635 103.985 55.881 104.444L40.0784 108.103C38.0959 108.562 36.9057 110.368 37.4217 112.131L41.4553 125.923C41.9714 127.686 44.002 128.745 45.9845 128.286L61.7871 124.627C63.7677 124.162 64.9598 122.362 64.4437 120.599ZM52.9009 116.223C52.9766 116.474 52.8309 116.744 52.5615 116.856L51.8324 117.151C51.8295 117.468 51.7805 117.783 51.6833 118.089L52.2918 118.55C52.5187 118.725 52.5667 119.01 52.4219 119.233L52.0767 119.747C51.9248 119.972 51.6144 120.073 51.3428 119.976L50.5856 119.725C50.3343 119.947 50.0433 120.137 49.7287 120.3L49.7919 121.012C49.8182 121.275 49.6258 121.517 49.3412 121.578L48.684 121.734C48.4014 121.802 48.0973 121.672 47.9721 121.432L47.6404 120.784C47.2836 120.781 46.9297 120.738 46.5855 120.651L46.0792 121.183C45.8895 121.383 45.5621 121.427 45.3112 121.299L44.734 120.992C44.4812 120.856 44.3678 120.58 44.4768 120.339L44.7586 119.665C44.5095 119.442 44.2952 119.183 44.1125 118.903L43.3114 118.959C43.0155 118.983 42.7443 118.812 42.6756 118.558L42.5014 117.98C42.4257 117.729 42.5733 117.465 42.8408 117.347L43.5699 117.052C43.5728 116.735 43.6219 116.42 43.719 116.114L43.1105 115.652C42.8836 115.477 42.8356 115.192 42.9804 114.969L43.3256 114.456C43.4775 114.231 43.7898 114.136 44.0614 114.233L44.8186 114.484C45.0699 114.263 45.3609 114.072 45.6755 113.909L45.6085 113.184C45.5822 112.921 45.7695 112.688 46.0521 112.62L46.7164 112.462C46.999 112.395 47.3032 112.524 47.4284 112.764L47.7601 113.413C48.1168 113.415 48.4708 113.459 48.8149 113.545L49.3373 113.016C49.534 112.815 49.8544 112.772 50.1052 112.901L50.6825 113.208C50.9352 113.343 51.0487 113.619 50.9397 113.861L50.6578 114.534C50.907 114.758 51.1213 115.016 51.304 115.296L52.1051 115.24C52.401 115.217 52.6722 115.388 52.7408 115.641L52.9009 116.223ZM59.1313 118.375C59.1692 118.501 59.0973 118.64 58.9616 118.692L58.5971 118.84C58.6001 119.001 58.5711 119.156 58.5279 119.314L58.8412 119.549C58.9563 119.63 58.9857 119.778 58.9081 119.897L58.7425 120.152C58.6701 120.264 58.5114 120.315 58.3685 120.268L57.9899 120.143C57.8572 120.255 57.7207 120.355 57.5625 120.433L57.594 120.79C57.6036 120.922 57.51 121.039 57.3616 121.074L57.0366 121.152C56.8952 121.185 56.7396 121.121 56.6806 121.001L56.5147 120.676C56.3338 120.679 56.1594 120.653 55.9812 120.615L55.7271 120.878C55.6367 120.98 55.4704 121.006 55.336 120.937L55.0493 120.79C54.9239 120.726 54.8662 120.584 54.9188 120.457L55.0597 120.121C54.9332 120.002 54.8209 119.881 54.7331 119.74L54.3326 119.768C54.1837 119.777 54.0525 119.694 54.0128 119.562L53.9257 119.273C53.8878 119.147 53.9597 119.008 54.0973 118.962L54.4689 118.813C54.4658 118.652 54.4948 118.497 54.538 118.338L54.2248 118.103C54.1097 118.023 54.0803 117.875 54.1578 117.755L54.3234 117.5C54.3958 117.389 54.5545 117.337 54.6974 117.384L55.076 117.51C55.2087 117.397 55.3452 117.297 55.5035 117.219L55.4681 116.85C55.4585 116.718 55.5451 116.603 55.6864 116.569L56.0185 116.49C56.1598 116.456 56.3154 116.52 56.3745 116.641L56.5403 116.965C56.7213 116.963 56.8957 116.988 57.0739 117.027L57.3351 116.762C57.4254 116.66 57.5917 116.634 57.7261 116.703L58.0128 116.85C58.1383 116.915 58.1959 117.056 58.1433 117.183L58.0024 117.519C58.1289 117.638 58.2412 117.759 58.329 117.9L58.7296 117.872C58.8785 117.863 59.0096 117.946 59.0493 118.078L59.1313 118.375ZM57.4257 110.954L56.9609 111.146C56.9612 111.348 56.9313 111.55 56.8693 111.747L57.2599 112.038C57.3986 112.146 57.4394 112.332 57.3463 112.475L57.1271 112.804C57.034 112.947 56.8329 113.008 56.658 112.956L56.1795 112.8C56.0189 112.946 55.8349 113.064 55.638 113.165L55.682 113.613C55.7029 113.783 55.5745 113.935 55.3978 113.977L54.9738 114.078C54.7901 114.122 54.5987 114.039 54.5231 113.889L54.3076 113.476C54.0805 113.476 53.8528 113.449 53.6318 113.394L53.3099 113.734C53.188 113.857 52.9793 113.893 52.818 113.81L52.4488 113.615C52.2875 113.533 52.2184 113.354 52.2776 113.198L52.4523 112.773C52.2881 112.63 52.1555 112.466 52.0422 112.291L51.5319 112.332C51.3406 112.35 51.1698 112.236 51.1225 112.079L51.0127 111.714C50.9634 111.551 51.056 111.381 51.2251 111.313L51.69 111.122C51.6897 110.92 51.7196 110.717 51.7815 110.521L51.3909 110.23C51.2523 110.121 51.2115 109.936 51.3046 109.792L51.5237 109.464C51.6169 109.32 51.8251 109.257 51.9967 109.324L52.4752 109.48C52.6357 109.334 52.8198 109.216 53.0167 109.115L52.9689 108.655C52.9498 108.491 53.0693 108.334 53.253 108.29L53.677 108.189C53.8608 108.146 54.0522 108.228 54.1278 108.378L54.3432 108.792C54.5704 108.792 54.798 108.818 55.0191 108.873L55.35 108.538C55.4719 108.415 55.6806 108.379 55.8418 108.462L56.2111 108.657C56.3724 108.739 56.4414 108.918 56.3822 109.074L56.2075 109.5C56.3717 109.642 56.5043 109.806 56.6177 109.981L57.1209 109.942C57.3122 109.923 57.483 110.038 57.5303 110.195L57.6401 110.559C57.6874 110.716 57.6019 110.885 57.4257 110.954Z" fill="white"/>
<path d="M56.3003 118.033C55.8198 118.148 55.5211 118.589 55.6499 119.017C55.7786 119.444 56.2733 119.704 56.7539 119.589C57.2344 119.474 57.533 119.033 57.4043 118.605C57.2845 118.183 56.7898 117.923 56.3003 118.033Z" fill="white"/>
<path d="M47.2346 115.544C46.2646 115.769 45.6885 116.647 45.9338 117.512L45.9376 117.524C46.1951 118.379 47.1826 118.891 48.1455 118.669C49.1155 118.444 49.6916 117.566 49.4463 116.701C49.2011 115.837 48.2117 115.318 47.2346 115.544Z" fill="white"/>
<path d="M54.0388 110.124C53.4241 110.27 53.0549 110.83 53.2126 111.378L53.2144 111.385C53.3792 111.931 54.0083 112.26 54.623 112.113C55.2378 111.967 55.607 111.407 55.4493 110.859C55.2846 110.312 54.6484 109.985 54.0388 110.124Z" fill="white"/>
<path d="M124.084 56.7089C122.89 58.3005 124.838 61.3254 128.43 63.4673C132.03 65.6138 135.914 66.0624 137.111 64.4771C138.305 62.8856 136.356 59.8606 132.765 57.7187C129.166 55.5785 125.28 55.1237 124.084 56.7089ZM127.162 61.6206C127.223 61.6733 127.284 61.7261 127.353 61.7771C127.284 61.7261 127.216 61.675 127.162 61.6206ZM127.639 61.9986C127.7 62.0513 127.765 62.0898 127.833 62.1409C127.767 62.0961 127.706 62.0434 127.639 61.9986ZM128.179 62.382C128.236 62.4221 128.294 62.4623 128.351 62.5025C128.292 62.456 128.236 62.4221 128.179 62.382ZM129.477 63.1707C129.548 63.2075 129.62 63.2443 129.685 63.2828C129.618 63.238 129.548 63.2075 129.477 63.1707ZM130.048 63.4589C130.136 63.4986 130.217 63.54 130.302 63.5734C130.208 63.5354 130.129 63.5003 130.048 63.4589ZM130.612 63.7219C130.7 63.7616 130.795 63.7997 130.88 63.8331C130.788 63.8014 130.698 63.7554 130.612 63.7219ZM136.504 63.921C135.737 64.9458 133.512 64.8765 131.059 63.8983C131.236 63.479 131.459 63.0621 131.682 62.6989C130.905 62.5811 130.134 62.1854 129.664 61.9067C128.928 61.4758 128.394 61.0103 128.077 60.5604C127.655 60.9708 127.239 61.3259 127.028 61.5042C125.059 59.8447 124.123 58.0199 124.906 56.9981C125.896 55.6843 129.298 56.1669 132.502 58.0778C135.699 59.9903 137.494 62.6072 136.504 63.921Z" fill="white"/>
<path d="M129.034 59.4643C128.828 59.7357 129.424 60.4086 130.365 60.966C131.305 61.5233 132.232 61.7604 132.433 61.4969C132.639 61.2255 132.043 60.5526 131.102 59.9952C130.167 59.4299 129.24 59.1928 129.034 59.4643Z" fill="white"/>
<path d="M111.154 103.565L111.076 103.583C110.496 103.721 105.449 104.817 100.45 102.451C98.0858 117.835 102.067 138.268 102.067 138.268C102.067 138.268 110.393 133.346 116.794 134.758C123.195 136.169 130.376 136.452 138.353 127.532C133.452 115.011 123.094 101.971 119.698 97.8897C116.691 102.136 111.733 103.427 111.154 103.565Z" fill="white"/>
<path d="M130.594 74.5722C129.891 74.0255 128.793 74.1998 128.354 74.9309L122.498 84.7068C122.498 84.7068 121.378 83.2493 120.036 81.5615L119.997 81.5842C117.351 83.158 116.6 84.7382 116.428 85.7762L116.326 86.3933C116.521 87.0407 116.713 87.6755 116.912 88.2881L119.479 91.5297C120.977 93.4093 124.168 93.2415 125.401 91.2232L132.582 79.4609C133.38 78.1389 133.055 76.5054 131.786 75.5142L130.594 74.5722Z" fill="white"/>
<path d="M97.1081 96.8616L97.509 92.9127C97.3376 92.2934 97.1553 91.6632 96.9513 91.0112L96.5161 90.5221C95.7818 89.6933 94.238 88.6668 91.0686 88.479L91.0224 88.4766C90.8112 90.5412 90.6581 92.2955 90.6581 92.2955L83.5454 88.3455L83.2082 88.1564L78.5418 85.5635L78.5315 85.5794L76.4998 84.4671C76.0372 84.2136 75.4262 84.3727 75.1931 84.8055L75.1827 84.8214C74.9975 85.162 75.1013 85.5818 75.4376 85.8183L77.5437 87.3036L76.9818 88.2795C76.2672 89.5277 76.7575 91.0545 78.0987 91.7858L91.7917 99.2267C94.0115 100.436 96.8675 99.1555 97.1081 96.8616Z" fill="white"/>
<path d="M104.438 79.9158C104.329 79.9553 104.216 79.9822 104.103 80.0092L104.061 80.0193C103.947 80.0462 103.832 80.0669 103.718 80.0876C101.185 80.5295 98.691 79.2916 97.7411 77.1938L94.1736 79.1286C94.1736 79.1286 92.3092 80.4824 91.8452 82.3108C91.6469 83.0856 91.403 85.0164 91.1847 86.9817C94.9795 87.209 96.9105 88.5407 97.8497 89.5969L97.952 88.6293C99.2309 92.4473 100.422 96.879 100.725 100.876C105.583 103.45 110.684 102.133 110.684 102.133C110.684 102.133 115.843 101.005 118.603 96.6149C116.625 93.0173 115.159 88.6512 114.12 84.776L114.752 85.5684C114.97 84.2298 115.896 82.2241 119.054 80.3395C117.768 78.7329 116.471 77.1693 115.857 76.5881C114.422 75.219 112.051 74.8678 112.051 74.8678L107.99 74.7849C108.333 77.0068 106.864 79.1691 104.438 79.9158Z" fill="white"/>
<path d="M101.258 61.6638C100.639 62.9295 98.9129 65.7728 95.5147 67.088L95.7968 68.0245C95.6761 68.0263 95.5593 68.0407 95.4392 68.0693C94.6477 68.258 94.1821 68.9752 94.3942 69.6792C94.6063 70.3831 95.4127 70.7972 96.2041 70.6086C96.4444 70.5513 96.6464 70.4426 96.8158 70.3011C97.5047 71.2552 98.4864 72.0251 99.682 72.4742L100.629 75.6169L99.2094 76.3863C99.77 77.9705 101.587 78.9251 103.404 78.5933C103.476 78.5827 103.549 78.5722 103.619 78.5553L103.662 78.5452C103.732 78.5284 103.803 78.5116 103.87 78.4821C105.62 77.9572 106.663 76.3411 106.269 74.7306L104.608 74.6955L103.648 71.5088C104.418 70.5976 104.836 69.4943 104.898 68.368C105.122 68.4089 105.367 68.4178 105.6 68.3623C106.392 68.1736 106.857 67.4564 106.645 66.7524C106.433 66.0485 105.627 65.6344 104.835 65.823C104.715 65.8516 104.606 65.8912 104.501 65.9433L103.955 64.1331C103.574 62.9171 102.527 62.0079 101.258 61.6638Z" fill="white"/>
<path d="M198.405 119.815L177.976 124.684C175.249 125.334 173.637 127.827 174.366 130.247C175.096 132.673 177.899 134.107 180.62 133.459L201.049 128.59C203.776 127.94 205.389 125.447 204.66 123.027C203.938 120.606 201.133 119.165 198.405 119.815ZM184.441 129.072C183.748 129.237 183.024 128.87 182.832 128.256C182.644 127.634 183.058 126.996 183.749 126.825C184.441 126.66 185.165 127.026 185.358 127.641C185.552 128.261 185.139 128.899 184.441 129.072ZM189.855 127.761C189.163 127.926 188.439 127.56 188.246 126.946C188.061 126.33 188.472 125.686 189.163 125.514C189.856 125.349 190.579 125.716 190.772 126.33C190.968 126.957 190.555 127.595 189.855 127.761ZM195.271 126.457C194.579 126.622 193.855 126.256 193.662 125.641C193.477 125.025 193.889 124.381 194.579 124.21C195.272 124.045 195.996 124.412 196.188 125.026C196.378 125.654 195.971 126.29 195.271 126.457Z" fill="white"/>
<path d="M173.956 78.303C171.732 76.327 169.956 74.1501 168.967 72.176C168.51 71.2611 168.268 70.4834 168.167 69.8203C165.984 71.7282 163.846 73.5311 161.73 75.1538C163.918 77.6638 166.407 80.1694 169.136 82.5908C171.865 85.0122 174.689 87.2224 177.508 89.1644C179.329 87.2888 181.35 85.3723 183.476 83.4307C182.683 83.3368 181.795 83.1038 180.833 82.7268C178.639 81.8552 176.191 80.2898 173.956 78.303Z" fill="white"/>
<path d="M93.7848 67.1774L93.497 66.222L94.8394 65.7C97.7143 64.5837 99.2001 62.0739 99.6955 61.0531L100.3 59.8177L101.752 60.2127C103.643 60.7321 105.077 62.0475 105.588 63.7445L105.761 64.3165C105.857 64.334 105.953 64.3515 106.049 64.369C105.24 61.7326 103.102 57.7285 97.7973 59.3027C93.7834 60.2593 92.1605 63.7719 92.6641 69.1893C92.6955 68.4138 93.1163 67.6735 93.7848 67.1774Z" fill="white"/>
<path d="M108.36 73.2698C107.665 71.7176 107.231 70.4534 106.953 69.4554C106.78 69.5574 106.588 69.6503 106.389 69.7179C106.205 70.442 105.901 71.1411 105.48 71.7803L105.914 73.2196L107.652 73.2568L108.36 73.2698Z" fill="white"/>
<path d="M89.3222 88.3701L89.3152 88.3717L89.4027 87.556L89.4677 86.8668L89.4686 86.8195C89.7508 84.2866 89.9762 82.697 90.1628 81.9585C90.7446 79.6911 92.8391 78.1208 93.0754 77.95L93.1629 77.8887L97.1679 75.7216L98.4958 75.0009L98.6399 74.9261L98.2196 73.5308C97.4887 73.1661 96.8231 72.6914 96.2484 72.1413C94.6799 72.34 93.1533 71.471 92.7348 70.082C92.7254 70.0506 92.7159 70.0191 92.7135 69.986C93.3005 75.5047 90.9136 75.7773 89.0094 80.3674C88.2832 82.1303 87.8998 85.7853 88.6144 89.4144L89.1774 89.7248C89.2367 89.293 89.2814 88.8379 89.3222 88.3701Z" fill="white"/>
<path d="M122.6 75.743C123.096 75.8808 123.641 75.7306 123.975 75.3815L124.426 74.917L126.393 76.0919L127.381 74.4419C127.42 74.3718 127.476 74.3047 127.515 74.2347L125.973 73.3154L127.143 72.1204C127.143 72.1204 123.372 72.2984 119.778 68.1631C118.51 70.1361 117.943 71.12 117.696 71.6098C117.536 71.9311 117.537 72.2878 117.708 72.6041C118.124 73.3807 119.319 74.8607 122.6 75.743Z" fill="white"/>
<path d="M120.658 77.3852C121.067 77.4359 121.468 77.2862 121.724 77.003C121.804 76.9166 121.87 76.8335 121.952 76.7534C119.282 75.9883 117.848 74.8213 117.09 73.8903L116.943 74.1546C116.754 74.4825 116.768 74.8832 116.998 75.1923C117.51 75.9123 118.658 77.1343 120.658 77.3852Z" fill="white"/>
<path d="M127.723 64.4105C125.821 63.2741 124.275 61.8641 123.361 60.4383C123.332 60.3914 123.3 60.3382 123.269 60.285C122.849 62.1096 122.1 64.7268 120.807 67.4735C123.898 71.0213 126.978 70.9878 127.106 70.9843L127.68 70.9552C129.816 69.0449 131.69 67.7226 133.749 66.5111C131.884 66.3559 129.744 65.6131 127.723 64.4105Z" fill="white"/>
<circle cx="98" cy="98" r="68.7081" stroke="white" stroke-opacity="0.1" stroke-width="2.58382"/>
<circle cx="98.5" cy="98.5" r="97.2081" stroke="white" stroke-opacity="0.1" stroke-width="2.58382"/>
</svg>
