<svg width="471" height="333" viewBox="0 0 471 333" fill="none" xmlns="http://www.w3.org/2000/svg">
<g clip-path="url(#clip0_786_430)">
<path d="M409.065 2.50524L9.94207 87.3414C4.72615 88.4501 1.39634 93.5762 2.50474 98.7908L49.9732 322.112C51.0816 327.327 56.2085 330.656 61.4244 329.547L460.547 244.711C465.763 243.602 469.093 238.476 467.985 233.261L420.516 9.93971C419.408 4.72509 414.281 1.39657 409.065 2.50524Z" fill="#0A0E3C" fill-opacity="0.6"/>
<path d="M409.065 2.50524L9.94207 87.3414C4.72615 88.4501 1.39634 93.5762 2.50474 98.7908L49.9732 322.112C51.0816 327.327 56.2085 330.656 61.4244 329.547L460.547 244.711C465.763 243.602 469.093 238.476 467.985 233.261L420.516 9.93971C419.408 4.72509 414.281 1.39657 409.065 2.50524Z" stroke="url(#paint0_linear_786_430)"/>
<path d="M27.5175 118.438C27.1531 118.515 26.8143 118.521 26.5011 118.457C26.1896 118.392 25.9271 118.265 25.7134 118.078C25.5012 117.888 25.3575 117.647 25.2823 117.354L26.1154 117.177C26.1602 117.336 26.2439 117.464 26.3664 117.562C26.4902 117.658 26.6386 117.72 26.8113 117.75C26.9841 117.78 27.1677 117.774 27.3623 117.733C27.5763 117.688 27.7577 117.61 27.9064 117.501C28.0569 117.391 28.1649 117.26 28.2304 117.108C28.2956 116.953 28.3096 116.789 28.2724 116.613C28.2337 116.431 28.1528 116.281 28.0297 116.163C27.908 116.043 27.7494 115.962 27.5538 115.921C27.36 115.879 27.1376 115.884 26.8863 115.938L26.4273 116.035L26.2853 115.367L26.7443 115.269C26.946 115.226 27.1151 115.153 27.2518 115.048C27.3903 114.943 27.4892 114.816 27.5484 114.669C27.6072 114.519 27.6181 114.357 27.5808 114.182C27.5451 114.014 27.4761 113.876 27.3737 113.769C27.2727 113.659 27.1458 113.583 26.9928 113.542C26.8415 113.5 26.673 113.499 26.4873 113.538C26.3104 113.576 26.152 113.644 26.012 113.742C25.8734 113.838 25.7691 113.956 25.6992 114.097C25.6289 114.236 25.6078 114.389 25.6361 114.557L24.8427 114.725C24.7891 114.43 24.821 114.153 24.9381 113.895C25.057 113.637 25.2393 113.416 25.485 113.233C25.7307 113.05 26.0199 112.922 26.3524 112.852C26.7009 112.778 27.0161 112.782 27.298 112.864C27.5813 112.945 27.8157 113.082 28.0014 113.278C28.189 113.472 28.3102 113.704 28.3652 113.971C28.4316 114.275 28.4016 114.551 28.2751 114.8C28.1504 115.048 27.9542 115.239 27.6867 115.371L27.6957 115.414C28.0682 115.392 28.3781 115.476 28.6254 115.665C28.8746 115.854 29.0348 116.121 29.1059 116.464C29.1712 116.763 29.145 117.048 29.0273 117.321C28.9114 117.593 28.7237 117.828 28.4644 118.026C28.2046 118.221 27.889 118.359 27.5175 118.438ZM32.3367 117.43C31.9171 117.517 31.5354 117.483 31.1916 117.327C30.8478 117.17 30.5527 116.9 30.3061 116.514C30.0596 116.128 29.8736 115.64 29.7481 115.049C29.6229 114.461 29.5946 113.941 29.6634 113.49C29.7339 113.039 29.8944 112.672 30.145 112.389C30.3973 112.107 30.7313 111.921 31.147 111.833C31.5627 111.744 31.9426 111.779 32.2868 111.937C32.6306 112.093 32.9256 112.363 33.1717 112.747C33.4192 113.129 33.6055 113.614 33.7307 114.203C33.8566 114.795 33.8854 115.318 33.8171 115.77C33.7484 116.221 33.5889 116.589 33.3388 116.873C33.0882 117.155 32.7541 117.341 32.3367 117.43ZM32.1862 116.722C32.5541 116.643 32.8034 116.403 32.934 116C33.0665 115.596 33.0605 115.055 32.9162 114.376C32.8203 113.925 32.6915 113.554 32.5299 113.263C32.3695 112.97 32.1839 112.762 31.9728 112.639C31.7631 112.513 31.5371 112.476 31.2947 112.528C30.9286 112.605 30.6795 112.847 30.5474 113.252C30.4154 113.657 30.4204 114.199 30.5627 114.876C30.6589 115.329 30.7872 115.702 30.9474 115.995C31.1091 116.286 31.2946 116.493 31.5039 116.617C31.7129 116.739 31.9403 116.774 32.1862 116.722Z" fill="#7B738C"/>
<path d="M31.6577 147.219L31.5314 146.624L32.9653 144.329C33.1177 144.08 33.2411 143.865 33.3353 143.682C33.431 143.497 33.4956 143.327 33.5292 143.172C33.5629 143.017 33.5628 142.86 33.529 142.701C33.4906 142.521 33.4151 142.374 33.3023 142.261C33.1892 142.146 33.0517 142.069 32.8899 142.03C32.7277 141.989 32.5546 141.987 32.3706 142.027C32.176 142.068 32.0146 142.144 31.8865 142.254C31.7584 142.365 31.6708 142.501 31.6238 142.662C31.5769 142.824 31.574 143.002 31.6154 143.196L30.8326 143.363C30.7623 143.032 30.7769 142.727 30.8764 142.447C30.9759 142.167 31.1438 141.931 31.3802 141.738C31.6163 141.544 31.9032 141.411 32.241 141.339C32.5824 141.266 32.8976 141.27 33.1866 141.351C33.4769 141.43 33.7204 141.571 33.9168 141.773C34.1128 141.973 34.2419 142.219 34.3039 142.511C34.3467 142.713 34.3506 142.918 34.3156 143.127C34.2822 143.336 34.1979 143.578 34.0626 143.854C33.9268 144.129 33.7292 144.47 33.4699 144.876L32.6302 146.236L32.6387 146.275L35.0851 145.755L35.2345 146.458L31.6577 147.219ZM38.0494 145.938C37.7169 146.008 37.4045 146.008 37.1121 145.937C36.8211 145.864 36.5729 145.732 36.3678 145.541C36.1626 145.35 36.0241 145.111 35.9522 144.825L36.7482 144.656C36.8173 144.885 36.9616 145.055 37.181 145.166C37.4004 145.276 37.641 145.304 37.9029 145.248C38.1116 145.204 38.2863 145.116 38.427 144.987C38.569 144.855 38.668 144.694 38.7239 144.505C38.7816 144.315 38.7873 144.112 38.7411 143.894C38.6941 143.673 38.6044 143.486 38.472 143.333C38.3397 143.18 38.1789 143.072 37.9899 143.009C37.8025 142.945 37.6008 142.935 37.3846 142.979C37.2201 143.014 37.0607 143.078 36.9064 143.17C36.7522 143.262 36.6336 143.364 36.5506 143.478L35.7759 143.526L35.4992 140.724L38.4868 140.089L38.6362 140.792L36.3305 141.282L36.4811 142.839L36.513 142.832C36.5973 142.707 36.7197 142.591 36.8802 142.485C37.0424 142.378 37.2243 142.304 37.426 142.261C37.7568 142.19 38.068 142.206 38.3598 142.309C38.6532 142.411 38.9032 142.582 39.1097 142.823C39.3175 143.062 39.4579 143.357 39.531 143.71C39.6075 144.061 39.5947 144.392 39.4924 144.702C39.3919 145.012 39.2169 145.276 38.9678 145.496C38.7199 145.713 38.4138 145.86 38.0494 145.938Z" fill="#7B738C"/>
<path d="M37.7058 175.671L37.5796 175.078L39.0135 172.782C39.1659 172.533 39.2892 172.318 39.3834 172.135C39.4791 171.95 39.5438 171.78 39.5772 171.625C39.611 171.47 39.6109 171.313 39.577 171.154C39.5388 170.974 39.4632 170.827 39.3505 170.714C39.2373 170.599 39.0998 170.522 38.938 170.483C38.7759 170.442 38.6028 170.441 38.4188 170.48C38.2242 170.521 38.0627 170.597 37.9346 170.707C37.8065 170.818 37.719 170.954 37.6719 171.115C37.625 171.277 37.6222 171.455 37.6635 171.65L36.8808 171.816C36.8105 171.485 36.8251 171.18 36.9245 170.9C37.0241 170.62 37.192 170.384 37.4283 170.191C37.6644 169.997 37.9513 169.864 38.2891 169.792C38.6305 169.719 38.9457 169.724 39.2347 169.805C39.525 169.883 39.7684 170.023 39.965 170.226C40.1609 170.426 40.29 170.673 40.352 170.964C40.3949 171.166 40.3988 171.371 40.3637 171.58C40.3302 171.788 40.246 172.031 40.1107 172.308C39.9749 172.582 39.7773 172.923 39.518 173.329L38.6784 174.689L38.6867 174.728L41.1331 174.208L41.2825 174.911L37.7058 175.671ZM44.1991 174.386C43.7795 174.473 43.3978 174.438 43.054 174.282C42.7102 174.126 42.415 173.855 42.1686 173.47C41.922 173.084 41.7362 172.596 41.6105 172.005C41.4854 171.417 41.4571 170.897 41.5258 170.446C41.5963 169.994 41.7569 169.628 42.0075 169.346C42.2598 169.063 42.5937 168.877 43.0095 168.789C43.4251 168.7 43.8051 168.735 44.1492 168.893C44.493 169.049 44.788 169.319 45.0341 169.703C45.2816 170.084 45.468 170.57 45.5931 171.159C45.7191 171.752 45.7479 172.274 45.6795 172.726C45.6109 173.178 45.4513 173.544 45.2012 173.829C44.9507 174.112 44.6166 174.297 44.1991 174.386ZM44.0487 173.678C44.4166 173.6 44.6658 173.359 44.7965 172.956C44.9288 172.552 44.9228 172.011 44.7785 171.332C44.6827 170.881 44.554 170.51 44.3924 170.219C44.2319 169.926 44.0463 169.718 43.8353 169.595C43.6256 169.469 43.3994 169.432 43.1571 169.483C42.7909 169.561 42.5419 169.803 42.4099 170.208C42.2778 170.613 42.2828 171.154 42.4251 171.832C42.5214 172.285 42.6496 172.658 42.8098 172.951C42.9715 173.242 43.1571 173.449 43.3664 173.573C43.5754 173.695 43.8028 173.73 44.0487 173.678Z" fill="#7B738C"/>
<path d="M44.6605 198.254L45.8153 203.687L44.9929 203.862L44.0128 199.251L43.9809 199.258L42.8612 200.383L42.6944 199.598L43.8619 198.424L44.6605 198.254ZM49.0946 203.067C48.7621 203.138 48.4495 203.137 48.1572 203.066C47.8662 202.994 47.6182 202.862 47.4129 202.67C47.2078 202.48 47.0692 202.24 46.9974 201.955L47.7933 201.785C47.8625 202.015 48.0066 202.184 48.2261 202.295C48.4456 202.405 48.6862 202.433 48.948 202.377C49.1568 202.333 49.3315 202.246 49.4722 202.117C49.6142 201.984 49.7131 201.823 49.7691 201.635C49.8268 201.445 49.8324 201.241 49.7862 201.024C49.7392 200.803 49.6496 200.616 49.5173 200.463C49.385 200.31 49.2242 200.202 49.035 200.138C48.8476 200.074 48.646 200.065 48.4298 200.109C48.2653 200.144 48.1058 200.207 47.9516 200.299C47.7974 200.391 47.6788 200.494 47.5957 200.608L46.8211 200.656L46.5444 197.854L49.5321 197.219L49.6815 197.921L47.3757 198.412L47.5263 199.968L47.5581 199.961C47.6425 199.836 47.7649 199.721 47.9253 199.615C48.0876 199.508 48.2695 199.433 48.4712 199.39C48.8019 199.32 49.1133 199.336 49.4048 199.438C49.6984 199.541 49.9484 199.712 50.1548 199.952C50.3627 200.191 50.5031 200.487 50.5763 200.839C50.6527 201.19 50.6399 201.522 50.5376 201.832C50.437 202.142 50.2622 202.406 50.0129 202.625C49.7651 202.842 49.459 202.99 49.0946 203.067Z" fill="#7B738C"/>
<path d="M50.7084 226.707L51.8632 232.14L51.0407 232.315L50.0606 227.704L50.0288 227.711L48.9091 228.836L48.7423 228.051L49.9098 226.877L50.7084 226.707ZM55.244 231.515C54.8244 231.602 54.4428 231.568 54.099 231.412C53.7553 231.256 53.4601 230.985 53.2135 230.599C52.9671 230.214 52.7811 229.726 52.6554 229.135C52.5303 228.546 52.502 228.026 52.5708 227.575C52.6413 227.124 52.8018 226.757 53.0524 226.475C53.3047 226.192 53.6386 226.006 54.0543 225.918C54.47 225.829 54.85 225.865 55.1941 226.022C55.5378 226.178 55.8329 226.449 56.079 226.832C56.3265 227.214 56.5129 227.699 56.638 228.288C56.764 228.881 56.7928 229.403 56.7243 229.855C56.6557 230.307 56.4964 230.675 56.2461 230.959C55.9956 231.241 55.6615 231.426 55.244 231.515ZM55.0935 230.807C55.4615 230.729 55.7107 230.488 55.8414 230.085C55.9738 229.682 55.9679 229.141 55.8234 228.461C55.7276 228.01 55.5989 227.64 55.4372 227.349C55.277 227.056 55.0912 226.847 54.8801 226.724C54.6705 226.599 54.4444 226.562 54.2021 226.613C53.836 226.691 53.5868 226.932 53.4548 227.338C53.3227 227.742 53.3277 228.284 53.4699 228.961C53.5662 229.415 53.6945 229.787 53.8547 230.08C54.0164 230.371 54.202 230.579 54.4113 230.702C54.6202 230.824 54.8476 230.859 55.0935 230.807Z" fill="#7B738C"/>
<path d="M57.6589 260.724C57.3263 260.794 57.014 260.795 56.7216 260.724C56.4304 260.65 56.1824 260.518 55.9773 260.328C55.7721 260.136 55.6336 259.898 55.5617 259.612L56.3577 259.443C56.4267 259.672 56.571 259.842 56.7905 259.952C57.01 260.063 57.2505 260.09 57.5123 260.034C57.721 259.99 57.8957 259.903 58.0365 259.773C58.1784 259.641 58.2775 259.481 58.3334 259.291C58.391 259.102 58.3966 258.898 58.3504 258.68C58.3035 258.459 58.2139 258.273 58.0815 258.12C57.9492 257.967 57.7884 257.858 57.5993 257.795C57.412 257.732 57.2102 257.721 56.994 257.765C56.8295 257.8 56.6702 257.864 56.516 257.956C56.3618 258.048 56.2431 258.151 56.16 258.265L55.3854 258.313L55.1086 255.51L58.0963 254.875L58.2457 255.578L55.94 256.068L56.0907 257.625L56.1225 257.619C56.2069 257.493 56.3291 257.377 56.4896 257.271C56.6518 257.165 56.8338 257.09 57.0355 257.047C57.3662 256.977 57.6775 256.993 57.9692 257.096C58.2626 257.197 58.5126 257.369 58.7192 257.61C58.927 257.848 59.0673 258.143 59.1405 258.496C59.2171 258.848 59.2042 259.178 59.1018 259.489C59.0012 259.798 58.8264 260.063 58.5773 260.282C58.3293 260.499 58.0232 260.646 57.6589 260.724Z" fill="#7B738C"/>
<path d="M63.8082 289.172C63.3887 289.26 63.0069 289.225 62.6631 289.069C62.3194 288.913 62.0242 288.642 61.7778 288.257C61.5312 287.87 61.3452 287.382 61.2197 286.792C61.0944 286.202 61.0663 285.683 61.1349 285.232C61.2054 284.781 61.3659 284.414 61.6165 284.132C61.8688 283.849 62.2029 283.664 62.6186 283.575C63.0343 283.487 63.4141 283.521 63.7582 283.679C64.1021 283.836 64.397 284.105 64.6432 284.49C64.8908 284.871 65.077 285.356 65.2023 285.945C65.3281 286.537 65.3569 287.06 65.2887 287.513C65.2199 287.963 65.0605 288.331 64.8102 288.615C64.5597 288.898 64.2258 289.084 63.8082 289.172ZM63.6576 288.464C64.0256 288.385 64.2748 288.145 64.4055 287.742C64.5379 287.339 64.532 286.798 64.3877 286.119C64.2917 285.667 64.163 285.296 64.0014 285.005C63.8411 284.712 63.6553 284.504 63.4442 284.381C63.2346 284.255 63.0085 284.218 62.7662 284.27C62.4001 284.348 62.151 284.589 62.0189 284.994C61.8869 285.4 61.892 285.941 62.0342 286.619C62.1303 287.071 62.2586 287.444 62.419 287.738C62.5807 288.028 62.7661 288.235 62.9754 288.359C63.1843 288.481 63.4118 288.516 63.6576 288.464Z" fill="#7B738C"/>
<path d="M69.7954 222.665C69.4446 221.015 70.4982 219.392 72.1488 219.042L84.1037 216.501C85.7543 216.15 87.3768 217.204 87.7276 218.854L100.747 280.106C101.098 281.757 100.044 283.379 98.3938 283.73L86.4389 286.271C84.7883 286.622 83.1658 285.568 82.815 283.918L69.7954 222.665Z" fill="white" fill-opacity="0.05"/>
<path d="M85.0003 191.326C84.6495 189.676 85.7034 188.054 87.354 187.703L99.3088 185.162C100.959 184.811 102.582 185.864 102.933 187.515L121.668 275.659C122.019 277.31 120.965 278.932 119.315 279.283L107.36 281.824C105.709 282.175 104.087 281.121 103.736 279.471L85.0003 191.326Z" fill="white" fill-opacity="0.05"/>
<path d="M96.9475 292.328L97.9425 292.117L100.57 295.972L100.634 295.959L101.466 291.368L102.461 291.156L103.616 296.589L102.836 296.755L102 292.824L101.95 292.834L101.181 297.098L100.534 297.235L98.0967 293.651L98.0463 293.661L98.8824 297.595L98.1023 297.761L96.9475 292.328ZM106.478 296.066C106.096 296.147 105.744 296.13 105.422 296.016C105.1 295.902 104.827 295.704 104.603 295.422C104.378 295.141 104.221 294.79 104.132 294.369C104.042 293.946 104.042 293.56 104.133 293.21C104.223 292.86 104.392 292.568 104.639 292.332C104.887 292.096 105.202 291.938 105.584 291.857C105.966 291.776 106.318 291.792 106.64 291.907C106.962 292.021 107.235 292.22 107.46 292.503C107.684 292.786 107.842 293.139 107.932 293.561C108.021 293.983 108.021 294.367 107.93 294.715C107.84 295.064 107.67 295.355 107.423 295.591C107.175 295.826 106.86 295.985 106.478 296.066ZM106.34 295.4C106.587 295.347 106.778 295.238 106.913 295.073C107.048 294.908 107.132 294.708 107.163 294.474C107.197 294.239 107.185 293.991 107.13 293.729C107.074 293.469 106.984 293.239 106.858 293.039C106.734 292.836 106.576 292.685 106.385 292.587C106.194 292.489 105.975 292.466 105.727 292.519C105.478 292.572 105.285 292.682 105.149 292.85C105.014 293.017 104.93 293.219 104.897 293.455C104.866 293.69 104.877 293.936 104.933 294.196C104.988 294.458 105.078 294.69 105.202 294.891C105.328 295.091 105.486 295.24 105.677 295.336C105.869 295.431 106.09 295.453 106.34 295.4ZM109.525 292.804L110.04 295.223L109.246 295.392L108.38 291.317L109.142 291.155L109.283 291.819L109.333 291.808C109.381 291.572 109.491 291.368 109.663 291.195C109.837 291.021 110.077 290.902 110.383 290.837C110.661 290.778 110.916 290.784 111.15 290.856C111.383 290.927 111.581 291.064 111.745 291.268C111.908 291.472 112.025 291.741 112.097 292.077L112.648 294.669L111.854 294.838L111.324 292.342C111.261 292.046 111.135 291.832 110.946 291.698C110.756 291.563 110.527 291.524 110.258 291.581C110.074 291.621 109.919 291.695 109.793 291.805C109.668 291.915 109.581 292.055 109.53 292.226C109.481 292.396 109.48 292.589 109.525 292.804Z" fill="#7B738C"/>
<path d="M125.18 218.7C124.829 217.05 125.883 215.427 127.533 215.077L139.488 212.536C141.139 212.185 142.761 213.239 143.112 214.888L154.544 268.672C154.895 270.322 153.841 271.944 152.19 272.295L140.236 274.836C138.585 275.186 136.963 274.133 136.612 272.483L125.18 218.7Z" fill="white" fill-opacity="0.05"/>
<path d="M143.243 200.807C142.892 199.157 143.946 197.535 145.597 197.184L157.551 194.643C159.202 194.292 160.824 195.346 161.175 196.996L175.465 264.225C175.816 265.875 174.762 267.497 173.112 267.848L161.157 270.389C159.506 270.74 157.884 269.686 157.533 268.036L143.243 200.807Z" fill="white" fill-opacity="0.05"/>
<path d="M152.268 281.306L152.118 280.601L156.324 279.707L156.474 280.412L154.778 280.773L155.783 285.5L154.966 285.674L153.961 280.947L152.268 281.306ZM160.012 282.835L159.505 280.45L160.301 280.281L161.167 284.356L160.387 284.522L160.237 283.816L160.195 283.825C160.147 284.062 160.035 284.276 159.859 284.465C159.684 284.651 159.443 284.777 159.138 284.842C158.876 284.898 158.632 284.89 158.406 284.818C158.181 284.743 157.987 284.605 157.824 284.401C157.662 284.197 157.546 283.927 157.475 283.591L156.924 280.999L157.717 280.83L158.247 283.326C158.306 283.604 158.43 283.809 158.619 283.941C158.808 284.072 159.025 284.113 159.271 284.06C159.42 284.029 159.56 283.96 159.69 283.855C159.823 283.748 159.922 283.61 159.987 283.44C160.055 283.267 160.063 283.067 160.012 282.835ZM164.007 283.838C163.605 283.924 163.241 283.911 162.915 283.801C162.59 283.689 162.315 283.493 162.091 283.214C161.868 282.933 161.712 282.58 161.622 282.158C161.533 281.74 161.533 281.355 161.622 281.004C161.711 280.653 161.878 280.357 162.121 280.119C162.366 279.88 162.677 279.72 163.056 279.64C163.286 279.591 163.518 279.582 163.75 279.612C163.981 279.642 164.2 279.72 164.406 279.847C164.613 279.973 164.793 280.155 164.947 280.395C165.101 280.631 165.217 280.935 165.296 281.305L165.355 281.586L162.116 282.274L161.99 281.68L164.452 281.156C164.408 280.948 164.326 280.772 164.207 280.629C164.087 280.485 163.941 280.382 163.767 280.321C163.595 280.26 163.406 280.25 163.201 280.294C162.978 280.341 162.796 280.437 162.652 280.583C162.511 280.725 162.414 280.894 162.361 281.089C162.309 281.281 162.304 281.478 162.348 281.682L162.446 282.146C162.504 282.418 162.601 282.64 162.738 282.81C162.875 282.98 163.042 283.098 163.236 283.162C163.431 283.224 163.644 283.23 163.876 283.181C164.026 283.149 164.159 283.099 164.274 283.03C164.388 282.959 164.481 282.871 164.553 282.765C164.625 282.66 164.671 282.538 164.692 282.4L165.471 282.376C165.458 282.61 165.391 282.827 165.271 283.026C165.152 283.223 164.986 283.392 164.771 283.534C164.559 283.674 164.304 283.775 164.007 283.838Z" fill="#7B738C"/>
<path d="M172.943 178.88C172.592 177.23 173.646 175.607 175.297 175.256L187.252 172.715C188.902 172.364 190.525 173.418 190.875 175.068L208.341 257.237C208.692 258.887 207.638 260.51 205.988 260.86L194.033 263.401C192.382 263.752 190.759 262.699 190.408 261.048L172.943 178.88Z" fill="white" fill-opacity="0.05"/>
<path d="M188.783 150.529C188.432 148.879 189.486 147.256 191.137 146.906L203.092 144.364C204.742 144.014 206.365 145.067 206.716 146.718L229.262 252.79C229.613 254.44 228.558 256.063 226.909 256.414L214.954 258.955C213.303 259.306 211.68 258.252 211.329 256.601L188.783 150.529Z" fill="white" fill-opacity="0.05"/>
<path d="M207.219 274.567L204.558 269.455L205.42 269.271L207.373 273.254L207.423 273.244L207.63 268.802L208.485 268.62L210.48 272.596L210.531 272.586L210.692 268.151L211.557 267.967L211.202 273.721L210.377 273.896L208.368 270.07L208.326 270.079L208.047 274.391L207.219 274.567ZM214.768 273.048C214.367 273.134 214.003 273.122 213.677 273.012C213.351 272.9 213.076 272.704 212.852 272.424C212.63 272.143 212.474 271.791 212.384 271.368C212.295 270.951 212.295 270.566 212.382 270.215C212.472 269.863 212.639 269.568 212.883 269.329C213.127 269.091 213.439 268.931 213.818 268.851C214.048 268.802 214.278 268.792 214.511 268.823C214.743 268.852 214.962 268.931 215.168 269.057C215.374 269.183 215.554 269.367 215.709 269.605C215.863 269.842 215.979 270.146 216.057 270.515L216.117 270.797L212.877 271.485L212.751 270.891L215.213 270.367C215.169 270.159 215.088 269.983 214.968 269.84C214.849 269.696 214.702 269.592 214.528 269.531C214.356 269.47 214.167 269.461 213.962 269.505C213.739 269.552 213.557 269.649 213.414 269.793C213.272 269.937 213.175 270.105 213.121 270.299C213.07 270.491 213.066 270.689 213.109 270.892L213.208 271.357C213.266 271.629 213.363 271.851 213.499 272.021C213.637 272.191 213.803 272.309 213.998 272.372C214.192 272.435 214.405 272.441 214.637 272.391C214.788 272.36 214.92 272.309 215.035 272.241C215.149 272.17 215.242 272.082 215.314 271.976C215.386 271.87 215.432 271.749 215.453 271.611L216.233 271.587C216.219 271.821 216.153 272.038 216.032 272.237C215.913 272.433 215.747 272.604 215.533 272.745C215.321 272.884 215.066 272.985 214.768 273.048ZM218.923 272.163C218.593 272.233 218.281 272.212 217.988 272.098C217.695 271.983 217.442 271.784 217.229 271.503C217.017 271.219 216.864 270.857 216.77 270.417C216.677 269.976 216.67 269.583 216.751 269.239C216.832 268.895 216.985 268.612 217.208 268.391C217.431 268.17 217.706 268.024 218.033 267.955C218.286 267.901 218.499 267.9 218.67 267.952C218.844 268.002 218.985 268.074 219.094 268.167C219.204 268.26 219.292 268.345 219.358 268.419L219.405 268.409L218.976 266.39L219.769 266.221L220.924 271.654L220.15 271.819L220.015 271.185L219.949 271.199C219.919 271.296 219.871 271.409 219.805 271.54C219.74 271.671 219.639 271.793 219.5 271.91C219.363 272.026 219.17 272.11 218.923 272.163ZM218.954 271.449C219.182 271.401 219.361 271.3 219.494 271.146C219.627 270.99 219.711 270.796 219.747 270.562C219.784 270.329 219.772 270.07 219.711 269.783C219.651 269.5 219.558 269.261 219.432 269.066C219.305 268.871 219.15 268.731 218.968 268.646C218.785 268.561 218.578 268.544 218.347 268.593C218.108 268.644 217.922 268.747 217.789 268.905C217.656 269.063 217.572 269.257 217.535 269.489C217.502 269.719 217.513 269.969 217.57 270.238C217.628 270.511 217.721 270.747 217.849 270.947C217.976 271.147 218.133 271.294 218.319 271.388C218.507 271.479 218.718 271.499 218.954 271.449Z" fill="#7B738C"/>
<path d="M215.943 116.65C215.592 114.999 216.645 113.377 218.296 113.026L230.251 110.485C231.902 110.134 233.525 111.188 233.875 112.838L262.138 245.802C262.488 247.452 261.434 249.074 259.783 249.425L247.829 251.966C246.178 252.317 244.556 251.264 244.205 249.613L215.943 116.65Z" fill="url(#paint1_linear_786_430)"/>
<path d="M246.952 159.662C246.642 158.204 247.572 156.771 249.031 156.461L261.682 153.772C263.141 153.462 264.574 154.393 264.883 155.85L283.132 241.703C283.442 243.161 282.512 244.595 281.053 244.905L268.402 247.594C266.943 247.904 265.51 246.973 265.2 245.515L246.952 159.662Z" fill="url(#paint2_linear_786_430)"/>
<path d="M259.452 258.525L259.302 257.819L263.507 256.925L263.657 257.631L261.961 257.991L262.966 262.718L262.149 262.892L261.144 258.165L259.452 258.525ZM265.806 259.585L266.321 262.005L265.527 262.173L264.373 256.741L265.155 256.574L265.585 258.596L265.635 258.585C265.685 258.345 265.793 258.14 265.962 257.97C266.131 257.798 266.374 257.68 266.69 257.613C266.97 257.553 267.226 257.559 267.459 257.629C267.694 257.7 267.894 257.836 268.057 258.04C268.222 258.241 268.341 258.512 268.413 258.851L268.964 261.443L268.17 261.612L267.64 259.116C267.576 258.817 267.45 258.602 267.261 258.469C267.071 258.336 266.84 258.299 266.566 258.357C266.379 258.397 266.219 258.472 266.087 258.583C265.957 258.694 265.866 258.835 265.814 259.007C265.764 259.177 265.761 259.37 265.806 259.585ZM272.245 258.98L271.738 256.595L272.534 256.425L273.4 260.5L272.62 260.666L272.47 259.961L272.427 259.97C272.38 260.206 272.268 260.42 272.092 260.609C271.917 260.796 271.677 260.922 271.37 260.987C271.109 261.043 270.865 261.035 270.639 260.963C270.414 260.888 270.22 260.749 270.057 260.546C269.895 260.342 269.778 260.071 269.707 259.735L269.156 257.143L269.949 256.975L270.48 259.471C270.539 259.749 270.663 259.953 270.852 260.085C271.041 260.217 271.258 260.257 271.504 260.205C271.652 260.173 271.792 260.105 271.923 259.999C272.056 259.893 272.155 259.755 272.221 259.584C272.288 259.412 272.296 259.211 272.245 258.98Z" fill="#F7F7FD"/>
<path d="M253.648 249.949L224.433 112.503" stroke="url(#paint3_linear_786_430)" stroke-opacity="0.5" stroke-width="0.454907"/>
<path d="M173.092 122.635L224.277 111.752" stroke="url(#paint4_linear_786_430)" stroke-opacity="0.5" stroke-width="0.454907"/>
<path d="M224.908 114.744C226.146 114.481 226.937 113.264 226.673 112.027C226.41 110.789 225.194 109.999 223.956 110.262C222.718 110.525 221.927 111.742 222.19 112.98C222.454 114.217 223.67 115.007 224.908 114.744Z" fill="white" stroke="white" stroke-opacity="0.4" stroke-width="0.873422"/>
<path d="M253.965 251.443C254.79 251.268 255.317 250.457 255.141 249.632C254.966 248.806 254.155 248.28 253.33 248.455C252.504 248.631 251.977 249.442 252.153 250.267C252.328 251.092 253.139 251.619 253.965 251.443Z" fill="white" stroke="white" stroke-opacity="0.3" stroke-width="0.873422"/>
<path d="M276.885 138.829C276.534 137.179 277.588 135.557 279.238 135.206L291.193 132.665C292.844 132.314 294.466 133.367 294.817 135.018L315.934 234.367C316.285 236.017 315.231 237.64 313.581 237.991L301.626 240.532C299.975 240.883 298.353 239.829 298.002 238.179L276.885 138.829Z" fill="white" fill-opacity="0.05"/>
<path d="M276.885 138.829C276.534 137.179 277.588 135.557 279.238 135.206L291.193 132.665C292.844 132.314 294.466 133.367 294.817 135.018L317.363 241.09C317.714 242.74 316.66 244.363 315.01 244.713L303.055 247.255C301.404 247.605 299.782 246.551 299.431 244.902L276.885 138.829Z" fill="white" fill-opacity="0.05"/>
<path d="M306.113 253.547L304.959 248.114L308.328 247.398L308.478 248.104L305.929 248.646L306.281 250.301L308.589 249.81L308.738 250.513L306.43 251.004L306.934 253.372L306.113 253.547ZM310.376 252.641L309.51 248.566L310.277 248.403L310.415 249.051L310.458 249.041C310.485 248.807 310.58 248.606 310.74 248.441C310.903 248.273 311.103 248.164 311.342 248.113C311.391 248.103 311.45 248.092 311.518 248.081C311.588 248.07 311.643 248.063 311.683 248.06L311.844 248.819C311.81 248.817 311.752 248.819 311.668 248.826C311.584 248.83 311.501 248.842 311.42 248.859C311.233 248.899 311.073 248.974 310.944 249.085C310.815 249.194 310.723 249.327 310.669 249.484C310.612 249.64 310.603 249.807 310.641 249.983L311.17 252.472L310.376 252.641ZM313.244 252.031L312.378 247.956L313.171 247.788L314.038 251.862L313.244 252.031ZM312.645 247.243C312.507 247.272 312.379 247.251 312.26 247.181C312.143 247.107 312.071 247.006 312.043 246.878C312.015 246.746 312.041 246.624 312.118 246.511C312.198 246.397 312.306 246.325 312.444 246.295C312.582 246.266 312.709 246.288 312.827 246.361C312.945 246.432 313.019 246.533 313.047 246.664C313.074 246.793 313.048 246.915 312.969 247.03C312.891 247.143 312.783 247.214 312.645 247.243Z" fill="#7B738C"/>
<path d="M313.094 147.528C312.743 145.878 313.798 144.255 315.448 143.904L327.403 141.363C329.054 141.012 330.676 142.066 331.027 143.716L348.81 227.379C349.161 229.029 348.107 230.651 346.456 231.002L334.502 233.543C332.851 233.894 331.228 232.841 330.877 231.191L313.094 147.528Z" fill="white" fill-opacity="0.05"/>
<path d="M326.394 107.226C326.043 105.575 327.097 103.953 328.747 103.602L340.702 101.061C342.353 100.711 343.976 101.764 344.327 103.414L369.731 222.932C370.082 224.582 369.027 226.204 367.377 226.555L355.422 229.096C353.772 229.447 352.149 228.394 351.798 226.744L326.394 107.226Z" fill="white" fill-opacity="0.05"/>
<path d="M350.568 239.911C350.487 239.665 350.329 239.496 350.094 239.402C349.859 239.305 349.586 239.29 349.274 239.357C349.052 239.404 348.866 239.48 348.719 239.586C348.571 239.69 348.465 239.812 348.4 239.953C348.337 240.092 348.323 240.239 348.355 240.392C348.383 240.521 348.436 240.626 348.516 240.707C348.598 240.788 348.696 240.849 348.808 240.892C348.922 240.933 349.041 240.962 349.165 240.98C349.289 240.996 349.406 241.006 349.518 241.01L350.078 241.035C350.261 241.041 350.45 241.061 350.648 241.094C350.846 241.129 351.035 241.188 351.216 241.273C351.397 241.359 351.554 241.478 351.686 241.634C351.82 241.788 351.914 241.987 351.966 242.231C352.031 242.539 352.01 242.829 351.901 243.102C351.794 243.374 351.605 243.611 351.334 243.813C351.064 244.014 350.718 244.16 350.293 244.25C349.886 244.337 349.52 244.347 349.196 244.281C348.871 244.215 348.6 244.082 348.381 243.88C348.162 243.677 348.009 243.414 347.922 243.09L348.744 242.916C348.802 243.108 348.9 243.259 349.04 243.366C349.181 243.471 349.345 243.537 349.534 243.563C349.724 243.588 349.924 243.577 350.134 243.532C350.366 243.483 350.564 243.403 350.73 243.293C350.896 243.179 351.017 243.046 351.094 242.893C351.17 242.738 351.19 242.573 351.152 242.396C351.118 242.235 351.044 242.113 350.93 242.03C350.818 241.946 350.677 241.888 350.507 241.854C350.338 241.819 350.152 241.797 349.946 241.787L349.267 241.748C348.807 241.722 348.425 241.622 348.121 241.446C347.819 241.27 347.628 240.992 347.548 240.614C347.481 240.301 347.508 240.009 347.629 239.74C347.748 239.471 347.94 239.241 348.203 239.05C348.465 238.857 348.778 238.723 349.143 238.645C349.511 238.567 349.849 238.562 350.158 238.632C350.468 238.701 350.729 238.83 350.94 239.023C351.15 239.212 351.29 239.453 351.359 239.743L350.568 239.911ZM354.406 243.376C354.148 243.431 353.904 243.433 353.675 243.381C353.446 243.329 353.251 243.224 353.089 243.066C352.93 242.907 352.821 242.694 352.765 242.428C352.716 242.198 352.72 241.999 352.777 241.831C352.834 241.664 352.928 241.521 353.06 241.403C353.192 241.284 353.346 241.182 353.523 241.099C353.699 241.016 353.881 240.942 354.069 240.878C354.307 240.797 354.5 240.732 354.649 240.682C354.796 240.63 354.901 240.576 354.961 240.519C355.021 240.462 355.04 240.385 355.02 240.29L355.016 240.271C354.967 240.04 354.863 239.874 354.705 239.774C354.549 239.675 354.343 239.652 354.087 239.707C353.819 239.764 353.621 239.868 353.493 240.018C353.365 240.168 353.288 240.32 353.26 240.476L352.478 240.464C352.514 240.198 352.6 239.97 352.738 239.782C352.877 239.592 353.05 239.439 353.258 239.323C353.467 239.205 353.693 239.119 353.94 239.067C354.102 239.033 354.279 239.015 354.469 239.015C354.661 239.013 354.848 239.046 355.028 239.113C355.21 239.18 355.373 239.295 355.515 239.461C355.657 239.625 355.76 239.856 355.823 240.152L356.398 242.858L355.623 243.023L355.505 242.466L355.473 242.472C355.444 242.586 355.388 242.703 355.307 242.824C355.225 242.945 355.111 243.056 354.964 243.155C354.817 243.255 354.631 243.328 354.406 243.376ZM354.443 242.702C354.662 242.656 354.841 242.573 354.978 242.453C355.117 242.333 355.212 242.195 355.264 242.038C355.317 241.878 355.326 241.718 355.292 241.557L355.18 241.032C355.159 241.067 355.109 241.105 355.033 241.146C354.958 241.186 354.872 241.226 354.773 241.266C354.673 241.304 354.577 241.339 354.482 241.374C354.388 241.408 354.308 241.435 354.245 241.458C354.095 241.511 353.962 241.573 353.844 241.646C353.728 241.719 353.641 241.807 353.584 241.909C353.528 242.011 353.515 242.131 353.545 242.273C353.586 242.469 353.69 242.602 353.857 242.672C354.023 242.74 354.219 242.75 354.443 242.702ZM358.491 238.155L358.626 238.792L356.401 239.265L356.265 238.628L358.491 238.155ZM356.655 237.525L357.448 237.356L358.267 241.211C358.3 241.364 358.348 241.475 358.41 241.543C358.472 241.61 358.542 241.649 358.621 241.662C358.701 241.673 358.784 241.669 358.871 241.651C358.935 241.637 358.99 241.621 359.035 241.602C359.081 241.583 359.117 241.568 359.142 241.557L359.425 242.182C359.383 242.209 359.321 242.241 359.24 242.277C359.158 242.314 359.055 242.347 358.928 242.376C358.72 242.424 358.518 242.428 358.32 242.389C358.124 242.349 357.952 242.26 357.806 242.121C357.66 241.982 357.561 241.79 357.509 241.544L356.655 237.525Z" fill="#7B738C"/>
<path d="M366.891 136.093C366.54 134.443 367.595 132.821 369.245 132.47L381.199 129.929C382.85 129.578 384.473 130.631 384.824 132.282L402.607 215.944C402.958 217.594 401.903 219.217 400.253 219.568L388.298 222.109C386.648 222.46 385.025 221.406 384.674 219.756L366.891 136.093Z" fill="white" fill-opacity="0.05"/>
<path d="M382.573 106.995C382.222 105.345 383.275 103.723 384.926 103.372L396.881 100.831C398.531 100.481 400.154 101.533 400.505 103.184L423.528 211.497C423.879 213.147 422.825 214.77 421.174 215.121L409.219 217.662C407.568 218.013 405.946 216.959 405.595 215.309L382.573 106.995Z" fill="white" fill-opacity="0.05"/>
<path d="M403.55 228.649C403.467 228.404 403.31 228.235 403.075 228.141C402.84 228.044 402.567 228.029 402.256 228.095C402.032 228.143 401.848 228.219 401.7 228.325C401.552 228.429 401.445 228.551 401.381 228.691C401.319 228.831 401.303 228.977 401.336 229.131C401.364 229.26 401.417 229.365 401.497 229.446C401.579 229.526 401.676 229.588 401.789 229.631C401.902 229.671 402.022 229.701 402.146 229.719C402.27 229.735 402.388 229.745 402.499 229.749L403.059 229.774C403.241 229.78 403.431 229.799 403.629 229.833C403.826 229.867 404.016 229.927 404.196 230.012C404.378 230.098 404.534 230.217 404.667 230.373C404.802 230.527 404.895 230.726 404.947 230.97C405.012 231.277 404.99 231.568 404.882 231.841C404.775 232.112 404.586 232.35 404.315 232.552C404.045 232.753 403.698 232.899 403.274 232.989C402.867 233.075 402.501 233.085 402.176 233.02C401.852 232.954 401.58 232.82 401.362 232.619C401.143 232.416 400.991 232.153 400.903 231.829L401.726 231.654C401.783 231.847 401.882 231.998 402.021 232.105C402.161 232.209 402.326 232.276 402.515 232.302C402.705 232.327 402.905 232.316 403.115 232.271C403.348 232.222 403.546 232.142 403.711 232.031C403.877 231.918 403.999 231.785 404.075 231.632C404.151 231.477 404.17 231.311 404.133 231.135C404.099 230.974 404.025 230.851 403.911 230.768C403.799 230.685 403.658 230.626 403.488 230.592C403.32 230.558 403.133 230.535 402.928 230.526L402.248 230.487C401.788 230.461 401.406 230.36 401.103 230.185C400.801 230.008 400.61 229.731 400.529 229.352C400.463 229.039 400.489 228.748 400.61 228.479C400.73 228.209 400.921 227.979 401.184 227.789C401.446 227.596 401.76 227.461 402.124 227.384C402.491 227.305 402.83 227.3 403.139 227.37C403.449 227.439 403.71 227.569 403.92 227.761C404.131 227.951 404.271 228.191 404.34 228.481L403.55 228.649ZM408.404 230.038L407.897 227.653L408.693 227.484L409.559 231.559L408.779 231.724L408.629 231.019L408.587 231.028C408.54 231.265 408.427 231.478 408.251 231.668C408.077 231.854 407.836 231.981 407.531 232.046C407.269 232.101 407.025 232.093 406.798 232.021C406.574 231.946 406.38 231.807 406.216 231.604C406.054 231.4 405.938 231.13 405.866 230.794L405.315 228.202L406.109 228.033L406.639 230.53C406.698 230.807 406.822 231.012 407.011 231.143C407.2 231.276 407.417 231.315 407.664 231.263C407.812 231.231 407.952 231.163 408.083 231.057C408.216 230.952 408.315 230.813 408.38 230.642C408.447 230.471 408.455 230.269 408.404 230.038ZM410.904 228.744L411.419 231.163L410.625 231.332L409.759 227.257L410.521 227.095L410.662 227.759L410.712 227.748C410.76 227.512 410.87 227.308 411.042 227.135C411.216 226.96 411.456 226.842 411.762 226.777C412.04 226.718 412.295 226.724 412.529 226.796C412.762 226.867 412.96 227.004 413.124 227.208C413.287 227.412 413.404 227.681 413.476 228.017L414.027 230.609L413.233 230.778L412.703 228.282C412.64 227.986 412.515 227.772 412.325 227.638C412.136 227.503 411.906 227.464 411.637 227.521C411.454 227.56 411.298 227.635 411.172 227.745C411.047 227.854 410.96 227.995 410.909 228.166C410.86 228.336 410.859 228.529 410.904 228.744Z" fill="#7B738C"/>
<g filter="url(#filter1_d_786_430)">
<path d="M179.577 111.581C179.214 109.874 177.535 108.784 175.828 109.147L128.116 119.288C126.408 119.651 125.318 121.33 125.681 123.037L128.904 138.202C129.267 139.909 130.946 140.998 132.653 140.635L180.366 130.494C182.073 130.131 183.163 128.453 182.8 126.746L182.079 123.353L188.764 118.513C189.683 117.848 189.328 116.403 188.206 116.238L180.321 115.082L179.577 111.581Z" fill="white"/>
<path d="M179.577 111.581C179.214 109.874 177.535 108.784 175.828 109.147L128.116 119.288C126.408 119.651 125.318 121.33 125.681 123.037L128.904 138.202C129.267 139.909 130.946 140.998 132.653 140.635L180.366 130.494C182.073 130.131 183.163 128.453 182.8 126.746L182.079 123.353L188.764 118.513C189.683 117.848 189.328 116.403 188.206 116.238L180.321 115.082L179.577 111.581Z" fill="url(#paint5_linear_786_430)"/>
<path d="M132.58 132.07L131.425 126.637L133.262 126.247C133.688 126.156 134.052 126.159 134.356 126.255C134.661 126.349 134.906 126.513 135.093 126.745C135.278 126.977 135.406 127.253 135.474 127.573C135.542 127.893 135.538 128.198 135.463 128.487C135.389 128.777 135.234 129.028 134.996 129.241C134.758 129.452 134.428 129.603 134.005 129.693L132.689 129.973L132.565 129.389L133.86 129.114C134.151 129.052 134.375 128.952 134.531 128.813C134.687 128.675 134.786 128.511 134.829 128.323C134.873 128.132 134.872 127.928 134.826 127.711C134.78 127.493 134.698 127.307 134.58 127.153C134.464 126.998 134.307 126.891 134.107 126.832C133.908 126.771 133.66 126.772 133.364 126.835L132.208 127.081L133.239 131.93L132.58 132.07ZM138.921 130.811C138.528 130.894 138.171 130.879 137.85 130.767C137.529 130.652 137.259 130.454 137.039 130.174C136.82 129.891 136.666 129.541 136.577 129.124C136.488 128.707 136.486 128.323 136.571 127.972C136.656 127.619 136.818 127.324 137.054 127.087C137.291 126.848 137.594 126.69 137.962 126.612C138.174 126.567 138.392 126.557 138.614 126.584C138.836 126.611 139.048 126.686 139.252 126.809C139.456 126.93 139.635 127.11 139.791 127.349C139.947 127.587 140.065 127.896 140.146 128.277L140.202 128.542L137.061 129.21L136.946 128.669L139.451 128.136C139.402 127.906 139.312 127.711 139.182 127.55C139.053 127.389 138.894 127.274 138.704 127.205C138.516 127.136 138.308 127.126 138.082 127.174C137.832 127.227 137.629 127.335 137.474 127.497C137.319 127.658 137.214 127.846 137.158 128.063C137.103 128.28 137.099 128.501 137.147 128.726L137.224 129.086C137.289 129.394 137.397 129.644 137.549 129.835C137.702 130.024 137.886 130.154 138.1 130.225C138.315 130.294 138.548 130.302 138.801 130.248C138.966 130.213 139.11 130.159 139.232 130.084C139.357 130.008 139.458 129.913 139.535 129.798C139.612 129.682 139.662 129.548 139.685 129.395L140.326 129.436C140.306 129.655 140.238 129.858 140.12 130.045C140.003 130.231 139.843 130.391 139.639 130.525C139.437 130.657 139.197 130.752 138.921 130.811ZM141.543 130.164L140.677 126.09L141.282 125.961L141.413 126.577L141.455 126.568C141.487 126.35 141.587 126.158 141.755 125.991C141.923 125.824 142.128 125.715 142.372 125.663C142.418 125.653 142.476 125.642 142.545 125.629C142.615 125.616 142.667 125.608 142.703 125.604L142.838 126.241C142.817 126.24 142.766 126.242 142.688 126.248C142.611 126.251 142.531 126.262 142.448 126.279C142.25 126.321 142.082 126.4 141.944 126.517C141.807 126.631 141.709 126.77 141.649 126.934C141.591 127.096 141.582 127.269 141.622 127.453L142.17 130.031L141.543 130.164ZM145.527 125.059L145.64 125.59L143.443 126.057L143.33 125.526L145.527 125.059ZM144.854 129.461L143.869 124.824C143.819 124.59 143.833 124.384 143.91 124.205C143.986 124.026 144.104 123.879 144.262 123.764C144.421 123.649 144.597 123.571 144.792 123.53C144.945 123.497 145.074 123.483 145.177 123.487C145.279 123.491 145.357 123.498 145.409 123.509L145.343 124.089C145.309 124.085 145.262 124.081 145.202 124.077C145.144 124.073 145.069 124.081 144.98 124.1C144.773 124.144 144.635 124.228 144.565 124.351C144.497 124.475 144.484 124.638 144.527 124.839L145.481 129.327L144.854 129.461ZM148.777 128.716C148.409 128.794 148.067 128.775 147.752 128.659C147.439 128.542 147.171 128.343 146.949 128.062C146.729 127.78 146.573 127.428 146.484 127.007C146.394 126.583 146.392 126.196 146.478 125.847C146.566 125.497 146.73 125.205 146.969 124.972C147.209 124.738 147.513 124.582 147.882 124.503C148.25 124.425 148.59 124.444 148.903 124.56C149.218 124.677 149.486 124.877 149.707 125.16C149.93 125.444 150.087 125.798 150.177 126.222C150.266 126.643 150.267 127.028 150.178 127.375C150.091 127.723 149.928 128.014 149.687 128.248C149.449 128.481 149.145 128.637 148.777 128.716ZM148.658 128.153C148.937 128.094 149.152 127.973 149.302 127.792C149.451 127.61 149.545 127.393 149.582 127.142C149.619 126.89 149.609 126.628 149.551 126.355C149.493 126.083 149.396 125.838 149.259 125.622C149.122 125.405 148.948 125.243 148.738 125.136C148.526 125.03 148.281 125.006 148.001 125.065C147.721 125.125 147.507 125.246 147.357 125.43C147.208 125.613 147.115 125.832 147.078 126.085C147.041 126.339 147.052 126.602 147.11 126.874C147.167 127.146 147.265 127.39 147.401 127.605C147.537 127.82 147.711 127.98 147.921 128.085C148.133 128.19 148.378 128.213 148.658 128.153ZM151.561 128.035L150.695 123.961L151.301 123.832L151.431 124.447L151.473 124.438C151.505 124.221 151.605 124.029 151.773 123.862C151.94 123.695 152.147 123.585 152.391 123.534C152.437 123.524 152.494 123.513 152.564 123.5C152.633 123.487 152.685 123.478 152.721 123.474L152.857 124.111C152.835 124.11 152.784 124.113 152.706 124.118C152.629 124.122 152.549 124.132 152.466 124.15C152.268 124.192 152.1 124.271 151.962 124.387C151.826 124.501 151.727 124.64 151.668 124.805C151.61 124.967 151.601 125.14 151.64 125.323L152.188 127.902L151.561 128.035ZM154.341 127.444L153.475 123.37L154.08 123.241L154.216 123.878L154.269 123.866C154.307 123.631 154.409 123.433 154.572 123.272C154.736 123.11 154.95 123.001 155.216 122.944C155.484 122.887 155.721 122.901 155.925 122.985C156.132 123.067 156.308 123.206 156.455 123.402L156.497 123.393C156.558 123.16 156.678 122.96 156.86 122.792C157.042 122.622 157.279 122.506 157.572 122.443C157.936 122.366 158.258 122.417 158.538 122.596C158.818 122.773 159.009 123.101 159.111 123.58L159.691 126.307L159.064 126.44L158.485 123.713C158.421 123.413 158.293 123.215 158.101 123.121C157.909 123.027 157.702 123.004 157.479 123.051C157.192 123.112 156.989 123.246 156.868 123.453C156.747 123.657 156.715 123.892 156.771 124.155L157.335 126.808L156.697 126.943L156.104 124.153C156.055 123.921 155.941 123.75 155.76 123.641C155.579 123.53 155.37 123.499 155.133 123.55C154.97 123.584 154.828 123.66 154.704 123.777C154.583 123.893 154.495 124.037 154.442 124.209C154.389 124.38 154.384 124.565 154.427 124.764L154.968 127.311L154.341 127.444ZM162.055 125.904C161.797 125.959 161.552 125.96 161.321 125.908C161.09 125.854 160.892 125.747 160.728 125.587C160.565 125.426 160.455 125.213 160.398 124.948C160.349 124.714 160.355 124.515 160.416 124.351C160.476 124.185 160.575 124.043 160.711 123.928C160.848 123.812 161.004 123.714 161.182 123.634C161.36 123.551 161.541 123.478 161.725 123.413C161.966 123.328 162.162 123.262 162.312 123.213C162.464 123.162 162.571 123.109 162.633 123.053C162.697 122.997 162.718 122.919 162.697 122.818L162.692 122.797C162.637 122.535 162.522 122.347 162.348 122.232C162.175 122.117 161.945 122.09 161.656 122.152C161.357 122.215 161.137 122.331 160.995 122.498C160.853 122.665 160.764 122.83 160.726 122.993L160.086 122.907C160.141 122.637 160.241 122.414 160.388 122.238C160.537 122.061 160.711 121.922 160.91 121.823C161.111 121.721 161.313 121.648 161.519 121.605C161.649 121.577 161.803 121.561 161.98 121.556C162.158 121.55 162.336 121.578 162.516 121.639C162.697 121.701 162.861 121.816 163.008 121.987C163.155 122.157 163.264 122.404 163.332 122.727L163.903 125.412L163.276 125.545L163.159 124.993L163.127 125C163.104 125.097 163.053 125.207 162.975 125.329C162.898 125.451 162.784 125.564 162.635 125.67C162.485 125.776 162.292 125.854 162.055 125.904ZM162.031 125.322C162.279 125.269 162.477 125.176 162.626 125.043C162.777 124.909 162.879 124.756 162.934 124.584C162.989 124.411 162.999 124.24 162.963 124.07L162.841 123.497C162.822 123.534 162.769 123.576 162.685 123.622C162.601 123.665 162.503 123.709 162.391 123.754C162.28 123.796 162.17 123.836 162.064 123.873C161.959 123.908 161.874 123.937 161.808 123.961C161.65 124.016 161.506 124.083 161.374 124.161C161.244 124.237 161.145 124.331 161.079 124.443C161.013 124.553 160.998 124.687 161.032 124.846C161.078 125.064 161.193 125.211 161.378 125.289C161.564 125.364 161.782 125.375 162.031 125.322ZM165.151 122.585L165.672 125.036L165.045 125.169L164.179 121.094L164.784 120.966L164.92 121.602L164.973 121.591C165.024 121.364 165.134 121.167 165.302 121C165.469 120.831 165.707 120.714 166.015 120.649C166.291 120.59 166.544 120.595 166.775 120.665C167.006 120.732 167.203 120.868 167.366 121.071C167.53 121.273 167.648 121.547 167.722 121.894L168.272 124.483L167.646 124.616L167.105 122.07C167.037 121.749 166.9 121.518 166.696 121.375C166.492 121.229 166.244 121.188 165.954 121.25C165.754 121.292 165.584 121.373 165.446 121.493C165.308 121.613 165.213 121.766 165.158 121.951C165.103 122.137 165.1 122.348 165.151 122.585ZM171.09 123.973C170.708 124.054 170.36 124.034 170.046 123.912C169.731 123.79 169.466 123.587 169.25 123.302C169.034 123.017 168.883 122.671 168.797 122.264C168.709 121.851 168.707 121.469 168.792 121.12C168.878 120.769 169.04 120.475 169.276 120.238C169.514 119.999 169.816 119.841 170.184 119.763C170.471 119.702 170.74 119.7 170.993 119.757C171.245 119.814 171.465 119.923 171.652 120.083C171.84 120.242 171.978 120.446 172.068 120.693L171.442 120.826C171.354 120.651 171.213 120.509 171.019 120.4C170.825 120.29 170.59 120.264 170.315 120.323C170.07 120.375 169.87 120.484 169.713 120.65C169.557 120.815 169.452 121.023 169.399 121.274C169.347 121.524 169.353 121.802 169.418 122.11C169.485 122.425 169.593 122.688 169.742 122.901C169.892 123.113 170.072 123.264 170.282 123.354C170.493 123.444 170.723 123.463 170.971 123.41C171.133 123.376 171.275 123.316 171.395 123.231C171.516 123.146 171.611 123.041 171.68 122.916C171.75 122.79 171.788 122.649 171.796 122.492L172.422 122.359C172.438 122.607 172.396 122.842 172.297 123.065C172.2 123.285 172.049 123.476 171.845 123.638C171.643 123.797 171.391 123.909 171.09 123.973ZM175.316 123.074C174.924 123.158 174.567 123.143 174.245 123.03C173.925 122.916 173.655 122.718 173.434 122.438C173.216 122.155 173.061 121.805 172.973 121.388C172.884 120.971 172.882 120.586 172.966 120.236C173.052 119.883 173.213 119.588 173.45 119.351C173.687 119.112 173.99 118.954 174.358 118.875C174.57 118.83 174.788 118.821 175.01 118.848C175.232 118.875 175.444 118.95 175.648 119.073C175.85 119.194 176.03 119.374 176.187 119.612C176.343 119.851 176.461 120.16 176.542 120.541L176.598 120.806L173.457 121.474L173.342 120.932L175.847 120.4C175.798 120.17 175.708 119.975 175.578 119.814C175.449 119.653 175.29 119.538 175.099 119.469C174.911 119.4 174.703 119.39 174.477 119.438C174.228 119.491 174.025 119.599 173.869 119.761C173.715 119.921 173.61 120.11 173.554 120.327C173.499 120.544 173.495 120.765 173.543 120.989L173.62 121.35C173.685 121.658 173.793 121.908 173.944 122.099C174.098 122.288 174.282 122.418 174.496 122.489C174.711 122.558 174.944 122.566 175.197 122.512C175.362 122.477 175.506 122.422 175.628 122.348C175.753 122.272 175.854 122.177 175.931 122.062C176.008 121.946 176.057 121.812 176.081 121.659L176.722 121.7C176.702 121.919 176.633 122.122 176.516 122.309C176.398 122.495 176.238 122.655 176.035 122.789C175.832 122.92 175.592 123.016 175.316 123.074Z" fill="white"/>
</g>
</g>
<defs>
<filter id="filter1_d_786_430" x="121.972" y="105.438" width="70.9555" height="38.9064" filterUnits="userSpaceOnUse" color-interpolation-filters="sRGB">
<feFlood flood-opacity="0" result="BackgroundImageFix"/>
<feColorMatrix in="SourceAlpha" type="matrix" values="0 0 0 0 0 0 0 0 0 0 0 0 0 0 0 0 0 0 127 0" result="hardAlpha"/>
<feOffset/>
<feGaussianBlur stdDeviation="1.81963"/>
<feComposite in2="hardAlpha" operator="out"/>
<feColorMatrix type="matrix" values="0 0 0 0 0.262745 0 0 0 0 0.262745 0 0 0 0 0.835294 0 0 0 0.25 0"/>
<feBlend mode="normal" in2="BackgroundImageFix" result="effect1_dropShadow_786_430"/>
<feBlend mode="normal" in="SourceGraphic" in2="effect1_dropShadow_786_430" result="shape"/>
</filter>
<linearGradient id="paint0_linear_786_430" x1="209.416" y1="44.5128" x2="261.073" y2="287.539" gradientUnits="userSpaceOnUse">
<stop stop-color="#FAFAFA" stop-opacity="0.2"/>
<stop offset="0.065" stop-color="#FAFAFA" stop-opacity="0.1"/>
</linearGradient>
<linearGradient id="paint1_linear_786_430" x1="222.951" y1="89.7859" x2="253.53" y2="250.748" gradientUnits="userSpaceOnUse">
<stop offset="0.00930967" stop-color="white"/>
<stop offset="0.236395" stop-color="#429CFC"/>
<stop offset="0.488829" stop-color="#007BFF"/>
</linearGradient>
<linearGradient id="paint2_linear_786_430" x1="255.591" y1="140.472" x2="276.439" y2="245.911" gradientUnits="userSpaceOnUse">
<stop offset="0.00930967" stop-color="white"/>
<stop offset="0.209746" stop-color="#EDEDED"/>
<stop offset="0.903846" stop-color="white"/>
</linearGradient>
<linearGradient id="paint3_linear_786_430" x1="nan" y1="nan" x2="nan" y2="nan" gradientUnits="userSpaceOnUse">
<stop stop-color="#ECECEE"/>
<stop offset="1" stop-color="#ECECEE" stop-opacity="0"/>
</linearGradient>
<linearGradient id="paint4_linear_786_430" x1="224.356" y1="112.125" x2="186.994" y2="120.067" gradientUnits="userSpaceOnUse">
<stop stop-color="#ECECEE"/>
<stop offset="1" stop-color="#ECECEE" stop-opacity="0"/>
</linearGradient>
<linearGradient id="paint5_linear_786_430" x1="144.918" y1="112.298" x2="150.176" y2="136.922" gradientUnits="userSpaceOnUse">
<stop offset="0.00930967" stop-color="white"/>
<stop offset="0.236395" stop-color="#2E92FD"/>
<stop offset="0.488829" stop-color="#007BFF"/>
</linearGradient>
<clipPath id="clip0_786_430">
<rect width="428.19" height="248.456" fill="white" transform="translate(0 89.0256) rotate(-12)"/>
</clipPath>
</defs>
</svg>
