<svg width="309" height="269" viewBox="0 0 309 269" fill="none" xmlns="http://www.w3.org/2000/svg">
<foreignObject x="-24" y="-24" width="356.208" height="316.176"><div xmlns="http://www.w3.org/1999/xhtml" style="backdrop-filter:blur(12px);clip-path:url(#bgblur_0_786_557_clip_path);height:100%;width:100%"></div></foreignObject><g data-figma-bg-blur-radius="24">
<rect x="0.541675" y="25.5588" width="287.038" height="243" rx="11.5" transform="rotate(-5 0.541675 25.5588)" fill="#0A0E3C" fill-opacity="0.6"/>
<rect x="0.541675" y="25.5588" width="287.038" height="243" rx="11.5" transform="rotate(-5 0.541675 25.5588)" stroke="url(#paint0_linear_786_557)"/>
<path fill-rule="evenodd" clip-rule="evenodd" d="M199.87 49.8934C200.339 49.2732 201.219 49.1328 201.852 49.579C202.489 50.0225 202.653 50.8951 202.226 51.5445L193.105 64.524L193.102 64.5183C192.89 64.8389 192.548 65.0605 192.171 65.1324C191.789 65.2068 191.4 65.1182 191.082 64.8992C190.762 64.6746 190.549 64.3375 190.49 63.9566C190.43 63.5757 190.52 63.1874 190.749 62.8729L199.87 49.8934ZM125.453 155.77C125.909 155.121 126.812 154.956 127.461 155.408C128.119 155.863 128.279 156.758 127.82 157.416L120.68 167.574C120.224 168.223 119.327 168.385 118.672 167.935C118.014 167.48 117.86 166.583 118.316 165.934L125.456 155.775L125.453 155.77ZM89.4918 104.106C88.7197 104.016 88.159 103.336 88.2267 102.556C88.2913 101.785 88.9646 101.201 89.7437 101.246L104.153 102.485L104.15 102.479C104.94 102.547 105.528 103.242 105.458 104.03C105.389 104.824 104.688 105.407 103.898 105.339L89.4918 104.106ZM216.973 115.038C216.183 114.97 215.598 114.267 215.668 113.479C215.745 112.688 216.446 112.105 217.242 112.17L231.061 113.352C231.853 113.425 232.436 114.123 232.365 114.911C232.291 115.707 231.59 116.291 230.792 116.22L216.973 115.038ZM96.5428 140.045C95.8339 140.299 95.0489 139.973 94.7332 139.296C94.4175 138.619 94.6721 137.808 95.3253 137.434L107.435 131.787C108.141 131.527 108.926 131.854 109.242 132.531C109.557 133.208 109.303 134.019 108.652 134.398L96.5428 140.045ZM211.61 86.3885C211.257 86.5874 210.836 86.6384 210.445 86.516C210.06 86.3908 209.738 86.1184 209.566 85.7487C209.394 85.3789 209.392 84.9573 209.543 84.5818C209.704 84.2094 210.011 83.9138 210.392 83.7774L224.004 77.4302C224.71 77.1701 225.495 77.4966 225.811 78.1736C226.126 78.8505 225.872 79.6618 225.221 80.0413L211.61 86.3885ZM182.39 196.909L213.601 182.355L205.327 164.612L174.116 179.166L182.39 196.909ZM216.629 184.122L181.798 200.364C179.741 201.323 178.851 203.754 179.803 205.796C180.756 207.838 183.19 208.719 185.246 207.76L220.077 191.518C222.133 190.559 223.024 188.128 222.071 186.086C221.119 184.044 218.685 183.164 216.629 184.122ZM168.233 166.548L199.443 151.995L198.218 149.367C195.868 144.492 196.255 138.744 199.237 134.209C206.382 123.045 208.316 109.344 204.531 96.6766C200.745 84.0091 191.619 73.6247 179.528 68.2299C167.434 62.8298 153.569 62.9513 141.539 68.561C129.509 74.1707 120.504 84.7137 116.867 97.4492C113.227 110.179 115.316 123.845 122.587 134.888C129.857 145.931 141.596 153.255 154.741 154.958C160.132 155.588 164.784 158.987 167.008 163.92L168.233 166.548ZM184.382 129.183L184.379 129.177C185.063 129.495 185.387 130.279 185.127 130.989C184.87 131.691 184.115 132.084 183.385 131.891L180.204 130.736L179.044 133.916L179.038 133.918C178.723 134.599 177.936 134.924 177.227 134.673C176.522 134.413 176.13 133.661 176.326 132.933L177.488 129.759L174.31 128.609C173.626 128.291 173.302 127.507 173.559 126.805C173.819 126.095 174.574 125.702 175.298 125.897L178.485 127.05L179.648 123.876C179.969 123.193 180.756 122.868 181.458 123.122C182.169 123.379 182.562 124.131 182.363 124.854L181.195 128.03L184.382 129.183ZM184.632 98.3726C187.094 97.2246 190.014 97.9685 191.613 100.145C193.212 102.322 193.041 105.325 191.205 107.323C189.375 109.32 186.39 109.749 184.076 108.349C181.761 106.949 180.767 104.116 181.697 101.577C182.211 100.159 183.267 99.0092 184.632 98.3726ZM130.958 112.099C133.414 110.954 136.339 111.695 137.938 113.872C139.538 116.048 139.366 119.051 137.536 121.047C135.701 123.046 132.716 123.475 130.401 122.075C128.086 120.675 127.084 117.839 128.019 115.297C128.536 113.886 129.592 112.736 130.958 112.099ZM151.805 83.228C152.199 83.328 152.533 83.5951 152.722 83.9569C152.909 84.313 152.933 84.7379 152.793 85.1221C152.658 85.5037 152.361 85.808 151.982 85.9641C151.603 86.1201 151.181 86.1093 150.808 85.9367L147.63 84.7872L146.467 87.961C146.36 88.3573 146.097 88.6878 145.733 88.878C145.37 89.0682 144.946 89.0995 144.567 88.9577C144.183 88.8185 143.873 88.5267 143.72 88.1546C143.565 87.7769 143.574 87.35 143.751 86.9836L144.905 83.8067L141.73 82.6488C141.049 82.3362 140.725 81.5522 140.985 80.8424C141.242 80.1408 141.997 79.7471 142.727 79.9401L145.905 81.0896L147.068 77.9158C147.389 77.2327 148.176 76.9073 148.885 77.1587C149.59 77.4185 149.982 78.1704 149.784 78.8931L148.616 82.0697L151.8 83.2166L151.805 83.228ZM154.955 138.258C151.749 124.641 152.022 112.85 155.771 102.875C159.337 93.401 166.011 85.614 175.798 79.5198L171.303 77.9036C170.621 77.591 170.295 76.8014 170.558 76.0972C170.812 75.3899 171.57 75.0019 172.297 75.1892L179.649 77.8483L179.652 77.854C180.399 78.1289 180.784 78.9538 180.512 79.6971L177.831 87.0417C177.51 87.7247 176.722 88.0502 176.017 87.7904C175.309 87.5389 174.917 86.7869 175.112 86.0585L176.397 82.5507L176.403 82.548C168.246 87.515 161.949 95.0086 158.47 103.875C154.932 113.275 154.687 124.47 157.733 137.476C160.223 137.43 162.445 139.005 163.219 141.365C163.99 143.72 163.132 146.309 161.104 147.746C159.073 149.192 156.35 149.153 154.37 147.652C152.394 146.157 151.627 143.543 152.481 141.213C152.936 139.969 153.812 138.923 154.955 138.258ZM202.47 153.762L167.638 170.004C165.582 170.963 164.692 173.394 165.644 175.436C166.596 177.478 169.031 178.359 171.087 177.4L205.918 161.158C207.974 160.199 208.865 157.768 207.912 155.726C206.96 153.684 204.526 152.804 202.47 153.762ZM134.304 114.609C135.558 115.063 136.31 116.333 136.103 117.648C135.899 118.956 134.797 119.947 133.468 120.006C132.134 120.067 130.951 119.185 130.639 117.89C130.324 116.604 130.968 115.271 132.174 114.709C132.848 114.395 133.609 114.358 134.304 114.609ZM187.981 100.889C189.233 101.337 189.985 102.607 189.784 103.919C189.577 105.235 188.472 106.221 187.143 106.28C185.817 106.344 184.631 105.456 184.316 104.17C184.001 102.883 184.643 101.545 185.848 100.983C186.522 100.669 187.287 100.638 187.981 100.889ZM158.772 140.522C160.021 140.978 160.77 142.242 160.563 143.558C160.359 144.865 159.254 145.851 157.926 145.91C156.603 145.966 155.419 145.084 155.105 143.797C154.792 142.516 155.437 141.184 156.642 140.622C157.31 140.31 158.078 140.271 158.772 140.522Z" fill="white"/>
</g>
<defs>
<clipPath id="bgblur_0_786_557_clip_path" transform="translate(24 24)"><rect x="0.541675" y="25.5588" width="287.038" height="243" rx="11.5" transform="rotate(-5 0.541675 25.5588)"/>
</clipPath><linearGradient id="paint0_linear_786_557" x1="144.019" y1="25.1042" x2="144.019" y2="269.104" gradientUnits="userSpaceOnUse">
<stop stop-color="#FAFAFA" stop-opacity="0.2"/>
<stop offset="0.065" stop-color="#FAFAFA" stop-opacity="0.1"/>
</linearGradient>
</defs>
</svg>
