<svg width="82" height="81" viewBox="0 0 82 81" fill="none" xmlns="http://www.w3.org/2000/svg">
<path d="M3.46096 54.1212C4.01174 54.1212 4.46096 53.672 4.46096 53.1212V22.3202H13.0196L9.35936 25.7616C8.9492 26.1405 8.92967 26.7733 9.30858 27.1718C9.5078 27.3827 9.77733 27.4921 10.039 27.4921C10.289 27.4921 10.5273 27.4023 10.7305 27.2226L16.2422 22.0507C16.4414 21.8593 16.5507 21.6015 16.5507 21.3202C16.5507 21.039 16.4414 20.7811 16.2422 20.5897L10.7305 15.4178C10.3203 15.0467 9.69136 15.0663 9.30856 15.4686C8.92965 15.8671 8.94918 16.5077 9.35934 16.8788L13.0195 20.3202H3.46094C2.90235 20.3202 2.46094 20.7694 2.46094 21.3202V53.1212C2.46094 53.672 2.90237 54.1212 3.46096 54.1212Z" fill="#636365"/>
<path d="M5.48047 58.8203C5.48047 62.9219 8.80857 66.2617 12.9219 66.2617C17.0235 66.2617 20.3516 62.9219 20.3516 58.8203C20.3516 54.7187 17.0235 51.3789 12.9219 51.3789C8.82027 51.3789 5.48047 54.7187 5.48047 58.8203Z" fill="#636365"/>
<path d="M16.6211 67.4802H9.2305C4.1407 67.4802 0 71.6208 0 76.7107V79.0388C0 79.6482 0.500001 80.1404 1.1016 80.1404H24.7496C25.3512 80.1404 25.8512 79.6521 25.8512 79.0388V76.7107C25.8512 71.6209 21.711 67.4802 16.6211 67.4802Z" fill="#636365"/>
<path d="M47.9531 58.8203C47.9531 54.7187 44.625 51.3789 40.5234 51.3789C36.414 51.3789 33.082 54.7187 33.082 58.8203C33.082 62.9219 36.4101 66.2617 40.5234 66.2617C44.6211 66.2617 47.9531 62.9219 47.9531 58.8203Z" fill="#636365"/>
<path d="M44.211 67.4802H36.8204C31.7423 67.4802 27.6016 71.6208 27.6016 76.7107V79.0388C27.6016 79.6482 28.0898 80.1404 28.6914 80.1404H52.3394C52.9409 80.1404 53.441 79.6521 53.441 79.0388V76.7107C53.441 71.6209 49.3009 67.4802 44.211 67.4802Z" fill="#636365"/>
<path d="M40.5232 0C29.0822 0 19.7852 9.3008 19.7852 20.738C19.7852 32.168 29.086 41.476 40.5232 41.476C51.9532 41.476 61.2612 32.1674 61.2612 20.738C61.2494 9.3 51.9526 0 40.5232 0ZM40.5232 39.48C30.1832 39.48 21.7852 31.0698 21.7852 20.742C21.7852 10.402 30.1836 2.004 40.5232 2.004C50.8512 2.004 59.2612 10.4024 59.2612 20.742C59.2494 31.07 50.851 39.48 40.5232 39.48Z" fill="#636365"/>
<path d="M45.7119 21.7424C45.1611 21.7424 44.7119 21.2932 44.7119 20.7424C44.7119 20.1838 45.1611 19.7424 45.7119 19.7424H51.7939C51.3252 14.2932 46.9658 9.94161 41.5239 9.47241V15.5427C41.5239 16.0935 41.0747 16.5427 40.5239 16.5427C39.9653 16.5427 39.5239 16.0935 39.5239 15.5427V9.46851C34.0747 9.93726 29.7231 14.2888 29.2539 19.7385H35.3242C35.875 19.7385 36.3242 20.1799 36.3242 20.7385C36.3242 21.2893 35.875 21.7385 35.3242 21.7385H29.2539C29.7227 27.1799 34.0742 31.5393 39.5239 32.0085V25.9265C39.5239 25.3757 39.9653 24.9265 40.5239 24.9265C41.0747 24.9265 41.5239 25.3757 41.5239 25.9265V32.0085C46.9653 31.5398 51.3247 27.1804 51.7939 21.7385H49.7822L45.7119 21.7424Z" fill="#636365"/>
<path d="M39.5234 32.0112V36.1596C39.5234 36.7104 39.9648 37.1596 40.5234 37.1596C41.0742 37.1596 41.5234 36.7104 41.5234 36.1596V32.0112C41.1953 32.0503 40.8633 32.062 40.5234 32.062C40.1836 32.0581 39.8516 32.0503 39.5234 32.0112Z" fill="#636365"/>
<path d="M29.2422 19.7424H25.082C24.5313 19.7424 24.082 20.1838 24.082 20.7424C24.082 21.2932 24.5313 21.7424 25.082 21.7424H29.2422C29.2032 21.4143 29.1914 21.0823 29.1914 20.7424C29.2032 20.3987 29.211 20.0706 29.2422 19.7424Z" fill="#636365"/>
<path d="M55.9414 19.7424H51.793C51.832 20.0706 51.8438 20.4026 51.8438 20.7424C51.8438 21.0823 51.832 21.4143 51.793 21.7424H55.9414C56.4921 21.7424 56.9414 21.2932 56.9414 20.7424C56.9414 20.1799 56.4804 19.7424 55.9414 19.7424Z" fill="#636365"/>
<path d="M70.3125 27.2183C70.5039 27.398 70.7539 27.4878 70.9922 27.4878C71.2617 27.4878 71.5235 27.3784 71.7227 27.1675C72.1016 26.7691 72.082 26.1363 71.6719 25.7573L68.0117 22.3159H76.582V53.1169C76.582 53.6677 77.0234 54.1169 77.582 54.1169C78.1328 54.1169 78.582 53.6677 78.582 53.1169V21.3159C78.582 20.7651 78.1328 20.3159 77.582 20.3159H68.0117L71.6719 16.8745C72.0821 16.5034 72.1016 15.8628 71.7227 15.4643C71.3438 15.0659 70.711 15.0424 70.3125 15.4135L64.8008 20.5854C64.6016 20.7768 64.4805 21.0346 64.4805 21.3159C64.4805 21.5971 64.6016 21.8549 64.8008 22.0464L70.3125 27.2183Z" fill="#636365"/>
<path d="M68.1133 66.2612C72.2149 66.2612 75.543 62.9214 75.543 58.8198C75.543 54.7182 72.2149 51.3784 68.1133 51.3784C64.0039 51.3784 60.6719 54.7182 60.6719 58.8198C60.6719 62.9214 63.9922 66.2612 68.1133 66.2612Z" fill="#636365"/>
<path d="M71.8008 67.4802H64.4102C59.3321 67.4802 55.1914 71.6208 55.1914 76.7107V79.0388C55.1914 79.6482 55.6797 80.1404 56.2812 80.1404H79.9292C80.5386 80.1404 81.0308 79.6521 81.0308 79.0388V76.7107C81.0308 71.6209 76.8907 67.4802 71.8008 67.4802Z" fill="#636365"/>
</svg>
