<svg width="70" height="58" viewBox="0 0 70 58" fill="none" xmlns="http://www.w3.org/2000/svg">
<path d="M61.9408 25.7895H64.2434C66.0239 25.7895 67.5795 27.1076 68.0324 29.0204C68.1156 29.332 68.1579 29.6891 68.1579 30.0817V30.3947H60.7895V30.0817C60.7895 29.5524 60.7234 29.0356 60.5956 28.5576C60.5154 28.2394 60.4007 27.9332 60.2709 27.6339C60.2352 27.5518 60.1962 27.4725 60.1569 27.392C60.0405 27.1533 59.9095 26.9235 59.763 26.7023C59.736 26.6616 59.7183 26.6152 59.6903 26.5752C60.3415 26.0643 61.1191 25.7895 61.9408 25.7895ZM54.6551 25.7895C55.8469 25.7895 56.9537 26.2662 57.7749 27.1351C58.2746 27.6577 58.6321 28.3053 58.8124 29.0204C58.9019 29.3559 58.9474 29.7129 58.9474 30.0817V30.3947H47.8947V30.0817C47.8947 29.7129 47.9402 29.3559 48.0328 29.0082C48.21 28.3053 48.5675 27.6577 49.0703 27.1315C49.8884 26.2662 50.9952 25.7895 52.187 25.7895H54.6551ZM38.6842 30.0817C38.6842 29.6891 38.7265 29.332 38.816 28.9952C39.2626 27.1076 40.8182 25.7895 42.5987 25.7895H44.9013C45.723 25.7895 46.5006 26.0643 47.1518 26.5752C47.1232 26.616 47.1052 26.6631 47.0777 26.7046C46.9323 26.9241 46.8022 27.1515 46.6869 27.3875C46.6472 27.4686 46.6077 27.5484 46.5717 27.6312C46.4425 27.9283 46.3287 28.2316 46.2496 28.5454C46.1187 29.0356 46.0526 29.5524 46.0526 30.0817V30.3947H38.6842V30.0817ZM23.767 6.44737H15.934H15.6579V0H20.8654L23.767 6.44737ZM0 0H13.8158V6.44737H0V0ZM70 38.592C70 38.6455 69.9613 38.6842 69.9078 38.6842H31.0459L17.3592 8.28947H24.6229L35.1547 31.6936C35.3036 32.0241 35.6323 32.2368 35.9948 32.2368H37.7632H46.9737H59.8684H69.0789H70V38.592Z" fill="white"/>
<path d="M53.4214 18.4209C54.9451 18.4209 56.1845 19.6604 56.1845 21.1841C56.1845 22.7078 54.9451 23.9472 53.4214 23.9472C51.8977 23.9472 50.6582 22.7078 50.6582 21.1841C50.6582 19.6604 51.8977 18.4209 53.4214 18.4209Z" fill="white"/>
<path d="M43.7499 19.342C45.0195 19.342 46.0525 20.3751 46.0525 21.6447C46.0525 22.9143 45.0195 23.9473 43.7499 23.9473C42.4803 23.9473 41.4473 22.9143 41.4473 21.6447C41.4473 20.3751 42.4803 19.342 43.7499 19.342Z" fill="white"/>
<path d="M63.0917 19.342C64.3613 19.342 65.3943 20.3751 65.3943 21.6447C65.3943 22.9143 64.3613 23.9473 63.0917 23.9473C61.8221 23.9473 60.7891 22.9143 60.7891 21.6447C60.7891 20.3751 61.8221 19.342 63.0917 19.342Z" fill="white"/>
<path d="M60.79 57.1051C57.7426 57.1051 55.2637 54.6262 55.2637 51.5788C55.2637 48.5314 57.7426 46.0525 60.79 46.0525C63.8374 46.0525 66.3163 48.5314 66.3163 51.5788C66.3163 54.6262 63.8374 57.1051 60.79 57.1051Z" fill="white"/>
<path d="M41.4482 57.1051C38.4008 57.1051 35.9219 54.6262 35.9219 51.5788C35.9219 48.5314 38.4008 46.0525 41.4482 46.0525C44.4956 46.0525 46.9745 48.5314 46.9745 51.5788C46.9745 54.6262 44.4956 57.1051 41.4482 57.1051Z" fill="white"/>
</svg>
