<svg width="82" height="57" viewBox="0 0 82 57" fill="none" xmlns="http://www.w3.org/2000/svg">
<path d="M62.7896 30.422L62.9532 30.4185L73.2143 30.3536L64.3813 6.00514L54.0015 14.6308C53.9674 14.6616 53.9333 14.6923 53.8958 14.7197L48.0548 19.571C47.9424 19.6633 47.8129 19.7385 47.6663 19.7932L38.5847 23.1095C38.2882 23.2155 38.0633 23.4377 37.9372 23.7078C37.8145 23.971 37.7906 24.2821 37.8929 24.5796L41.0178 33.1984C41.1234 33.4924 41.345 33.7181 41.6108 33.8446C41.8834 33.9711 42.2003 33.995 42.4934 33.889L43.7167 33.4412L50.345 31.0207L47.9663 24.4702C47.7209 23.7899 48.0719 23.0378 48.7467 22.7916C49.4248 22.5454 50.1745 22.8975 50.42 23.5745L52.9281 30.4907L62.7836 30.4257L62.7896 30.422ZM45.8083 35.4647L48.2551 42.2134C48.3608 42.5074 48.5823 42.733 48.8856 42.8766C49.1718 42.9928 49.4615 43.0031 49.7341 42.904L53.0022 41.7108C53.2953 41.6048 53.5236 41.3826 53.6497 41.1159C53.7724 40.8424 53.7963 40.5245 53.6906 40.2305L51.2438 33.4852L45.8083 35.4681L45.8083 35.4647ZM53.8814 33.0989L56.1443 39.3348C56.4987 40.3126 56.4237 41.3485 56.0182 42.2203C55.6058 43.0955 54.8663 43.8168 53.8951 44.1724L50.627 45.3656C49.7035 45.7007 48.7254 45.6494 47.8803 45.2904L47.7542 45.2391C46.8852 44.8323 46.1628 44.087 45.8083 43.1058L43.3615 36.3605C42.8163 36.552 42.2506 36.6101 41.7054 36.552L36.0961 42.1793C34.6409 43.6426 32.7189 44.3776 30.8003 44.3776C28.8852 44.3776 26.9666 43.646 25.508 42.1827L6.14157 22.7609C5.6304 22.2481 5.6304 21.4173 6.14157 20.9045C6.65275 20.3916 7.48088 20.3916 7.99202 20.9045L27.3515 40.3263C28.2954 41.2767 29.5461 41.752 30.8002 41.752C32.0508 41.752 33.3015 41.2768 34.2455 40.3263L39.2754 35.287C38.9755 34.9451 38.7335 34.5451 38.57 34.0938L35.4484 25.4887C35.094 24.5144 35.1724 23.4819 35.5779 22.6033C35.9834 21.7315 36.7263 21.0067 37.6976 20.6511L46.5612 17.4135L49.4919 14.9794H4.87995C3.54064 14.9794 2.32067 15.5298 1.43466 16.4186C0.552055 17.3041 0 18.5281 0 19.875V52.1074C0 53.4236 0.524802 54.6236 1.40404 55.5331C2.31736 56.4493 3.53733 56.9998 4.88004 56.9998H56.7233C58.0627 56.9998 59.2826 56.4493 60.1686 55.5605C61.0546 54.675 61.6033 53.451 61.6033 52.1041V33.0507L53.8914 33.102L53.8814 33.0989ZM69.9048 0.0700773L66.589 1.28374C66.3232 1.39656 66.1221 1.60511 66.0063 1.85467C65.8904 2.10425 65.8631 2.39485 65.9483 2.67176L76.5262 31.8339C76.6318 32.1279 76.8533 32.357 77.1191 32.4835C77.385 32.6065 77.6985 32.6305 77.9984 32.5211L81.2494 31.3313C81.5221 31.2322 81.7333 31.0373 81.8765 30.7706C82.0162 30.4663 82.04 30.1518 81.9344 29.8612L71.3766 0.756829C71.271 0.46281 71.0495 0.23375 70.7802 0.107255C70.5144 -0.0158174 70.2013 -0.0393253 69.9048 0.0700773Z" fill="white"/>
</svg>
