<svg width="82" height="82" viewBox="0 0 82 82" fill="none" xmlns="http://www.w3.org/2000/svg">
<path d="M81.2125 33.3934H41.8733V49.1568H64.478C64.1144 51.3875 63.2985 53.5821 62.1038 55.5834C60.7347 57.8759 59.0422 59.6214 57.3076 60.9506C52.1113 64.9325 46.0531 65.7468 41.846 65.7468C31.2177 65.7468 22.1367 58.8776 18.6212 49.5436C18.4794 49.2049 18.3851 48.8551 18.2704 48.5093C17.4936 46.1335 17.0691 43.6177 17.0691 41.0027C17.0691 38.2812 17.5288 35.676 18.3669 33.2155C21.6726 23.5115 30.9583 16.2636 41.8536 16.2636C44.0449 16.2636 46.1553 16.5244 48.1567 17.0447C52.7304 18.2337 55.9655 20.5756 57.9478 22.428L69.9094 10.7138C62.6332 4.04249 53.148 1.00866e-08 41.8337 1.00866e-08C32.7885 -0.000194679 24.4377 2.81801 17.5945 7.58085C12.0448 11.4434 7.4933 16.6148 4.4216 22.6209C1.56446 28.1897 0 34.361 0 40.9964C0 47.6322 1.56685 53.8677 4.42398 59.3849V59.4221C7.44183 65.2797 11.855 70.3229 17.2187 74.1676C21.9044 77.5266 30.3064 82 41.8337 82C48.4628 82 54.3378 80.8047 59.5192 78.565C63.257 76.9494 66.5687 74.8417 69.5672 72.1332C73.5289 68.5545 76.6315 64.1278 78.7492 59.0348C80.867 53.9418 82 48.1824 82 41.9384C82 39.0306 81.7078 36.0775 81.2125 33.3934Z" fill="#636365"/>
</svg>
