<svg width="64" height="68" viewBox="0 0 64 68" fill="none" xmlns="http://www.w3.org/2000/svg">
<path fill-rule="evenodd" clip-rule="evenodd" d="M44.3298 62.9809H17.6703C16.2967 62.9842 15.1865 64.1044 15.1833 65.4904V68L46.8174 67.9967V65.4904C46.8108 64.1044 45.7002 62.9842 44.3298 62.9809ZM25.6581 53.265L24.4656 61.2724H37.5302L36.3376 53.265H25.6581ZM11.3084 22.977L12.4087 21.8702C12.7052 21.571 13.1762 21.5378 13.5122 21.7904L15.0836 22.9803V22.9836C15.3899 22.8108 15.7095 22.6579 16.0323 22.5249C16.3584 22.3887 16.6878 22.2723 17.0239 22.1726L17.2907 20.2646C17.3236 19.8192 17.6926 19.4736 18.134 19.4736H21.2503C21.6719 19.4736 22.0277 19.786 22.087 20.2081L22.3604 22.1726C22.6964 22.269 23.0291 22.3853 23.352 22.5216C23.6781 22.6579 23.9943 22.8108 24.304 22.9803L25.816 21.8335C26.1487 21.531 26.6593 21.5443 26.9789 21.8668L28.0791 22.977L29.1794 24.0838C29.4759 24.383 29.5088 24.855 29.2585 25.1941L28.0792 26.7796C28.2472 27.092 28.3987 27.4111 28.5338 27.7402C28.6655 28.066 28.7808 28.4017 28.8797 28.7407L30.7705 29.01C31.2152 29.0399 31.5578 29.4122 31.5578 29.8609V33.012C31.5578 33.4374 31.2449 33.7964 30.8265 33.8563L28.8797 34.1321H28.883C28.7841 34.4712 28.6688 34.8069 28.5338 35.1327C28.3987 35.4617 28.2472 35.7808 28.0792 36.0933L29.2157 37.619C29.5188 37.9547 29.5056 38.4732 29.1861 38.7923L28.0858 39.9025L26.9855 41.0094H26.9822C26.6858 41.3086 26.218 41.3418 25.882 41.0892L24.3106 39.8993C24.001 40.0688 23.6847 40.2217 23.3586 40.358C23.0358 40.4909 22.7031 40.6106 22.3671 40.707L22.1002 42.6149C22.0706 43.0637 21.7016 43.4094 21.2569 43.4094H18.1374C17.7157 43.4094 17.3599 43.0936 17.3039 42.6714L17.0272 40.707V40.7103C16.6912 40.6106 16.3585 40.4943 16.0357 40.358C15.7095 40.225 15.3933 40.0688 15.0837 39.8993L13.5716 41.0461H13.5749C13.2389 41.3519 12.7283 41.3386 12.4088 41.0162L11.3085 39.9093L10.2082 38.7991C9.91178 38.4999 9.87884 38.0246 10.1292 37.6855L11.3085 36.1C11.1405 35.7875 10.9889 35.4684 10.8539 35.1427C10.7221 34.8136 10.6035 34.4812 10.508 34.1422L8.61712 33.8729L8.61383 33.8696C8.17241 33.8397 7.82981 33.4674 7.82981 33.0187V29.8676C7.82981 29.4422 8.14276 29.0832 8.55782 29.0267L10.5047 28.7475C10.6035 28.4084 10.7188 28.0727 10.8539 27.7469C10.9856 27.4179 11.1372 27.0988 11.3085 26.7863L10.1719 25.2606V25.2639C9.86886 24.9249 9.88205 24.4097 10.2016 24.0873L11.3018 22.9771L11.3084 22.977ZM13.0873 23.5953L11.9212 24.772L13.0016 26.2179V26.2212C13.2124 26.5037 13.2289 26.8926 13.0379 27.1917C12.5536 27.9596 12.2077 28.8071 12.0134 29.6947C11.9376 30.0404 11.6543 30.3063 11.3052 30.3528L9.52957 30.6088V32.274L11.3052 32.53C11.6708 32.5798 11.964 32.8657 12.0233 33.2346C12.2209 34.1055 12.5668 34.9398 13.0444 35.6943C13.2454 36.0168 13.2092 36.4322 12.9588 36.7148L11.9211 38.1075L13.0872 39.2841L14.5202 38.1939L14.5235 38.1973C14.8035 37.9845 15.1823 37.9712 15.4788 38.1607C15.8576 38.4033 16.2562 38.6127 16.6713 38.7889C17.0897 38.9617 17.5212 39.1014 17.9626 39.2011C18.3052 39.2775 18.5654 39.5601 18.6148 39.9124L18.8685 41.704H20.5188L20.7725 39.9124H20.7692C20.8219 39.5435 21.1052 39.2509 21.4708 39.1878C22.3339 38.9884 23.1575 38.6393 23.9085 38.1607C24.2247 37.958 24.6398 37.9912 24.9198 38.2438L26.3 39.2909L27.4662 38.1142L26.3857 36.6683L26.389 36.665C26.1782 36.3825 26.1617 36.0002 26.3495 35.7011C26.837 34.9332 27.1829 34.0857 27.3806 33.1948C27.4564 32.8491 27.7397 32.5832 28.0888 32.5367L29.8644 32.2807V30.6088L28.0888 30.3529C27.7199 30.303 27.43 30.0172 27.3707 29.6482C27.2719 29.2194 27.1401 28.8006 26.9721 28.3917C26.8008 27.9763 26.59 27.5741 26.3495 27.1918C26.1486 26.8693 26.1815 26.4538 26.4319 26.1713L27.4696 24.7786L26.3034 23.602L24.8705 24.6922V24.6888C24.5872 24.9016 24.2084 24.9149 23.9119 24.7254C23.151 24.2368 22.311 23.8844 21.4281 23.685C21.0855 23.6085 20.8253 23.326 20.7759 22.9736L20.5222 21.182H18.8719L18.6182 22.9736C18.5688 23.3426 18.2855 23.6351 17.9198 23.6983C17.0535 23.8977 16.2299 24.2434 15.4822 24.7253C15.1626 24.9281 14.7509 24.8949 14.4709 24.6422L13.0906 23.5952L13.0873 23.5953ZM22.4134 28.7009C21.1154 27.3912 19.0863 27.1918 17.561 28.2189C16.0358 29.2459 15.4429 31.217 16.1445 32.9255C16.8462 34.634 18.6482 35.6046 20.4435 35.2424C22.2421 34.8834 23.5367 33.2912 23.5367 31.4397C23.54 30.4127 23.1348 29.4255 22.4134 28.7009ZM19.6956 25.8589C17.057 25.8589 14.784 27.7402 14.2668 30.3529C13.7529 32.9655 15.1398 35.5814 17.5775 36.6019C20.0152 37.619 22.8284 36.7581 24.2976 34.5444C25.7636 32.3306 25.4769 29.379 23.6092 27.4942C22.5715 26.4439 21.1648 25.8556 19.6956 25.8589ZM44.2672 31.4132H44.2738C44.3298 31.1938 44.4714 31.0077 44.6658 30.8947C44.8601 30.7816 45.0907 30.7517 45.3048 30.8082C45.7561 30.9312 46.023 31.3966 45.9044 31.852L42.9396 43.0136C42.8211 43.469 42.3566 43.7382 41.9052 43.6152C41.4539 43.4956 41.1871 43.0269 41.309 42.5715L44.2737 31.4099L44.2672 31.4132ZM61.3703 8.09265L62.7308 13.2181H62.7341C63.0932 12.9855 63.3896 12.6763 63.6071 12.3074L63.6302 12.2642V12.2675C63.9892 11.6393 64.0913 10.8947 63.9168 10.1934C63.9069 10.1668 63.9003 10.1402 63.897 10.1136L63.8937 10.1169C63.5709 8.96679 62.5563 8.15246 61.3736 8.09264L61.3703 8.09265ZM62.4706 22.6946C62.4442 22.7046 62.4146 22.7145 62.3849 22.7245H62.3915C62.3685 22.7278 62.3454 22.7345 62.3223 22.7444C61.7491 22.8774 61.1694 22.5417 61.0014 21.9733C60.9948 21.9467 60.9882 21.9201 60.9783 21.8935L55.5429 1.41847C55.3848 0.830133 55.7208 0.221898 56.3006 0.0489889C56.3237 0.0456652 56.3467 0.0390182 56.3698 0.0290461C56.9561 -0.107239 57.5458 0.248424 57.7006 0.836764L59.4795 7.53782L59.4828 7.5345C59.4861 7.56774 59.496 7.59766 59.5058 7.62757L63.1492 21.3556C63.2908 21.8808 63.0372 22.4325 62.5496 22.6653C62.5266 22.6752 62.5002 22.6852 62.4772 22.6952L62.4706 22.6946ZM44.277 20.1584C43.885 20.2548 43.4897 20.3578 43.0978 20.4642L47.3769 27.9431H47.3736C47.4526 28.0761 47.5811 28.1724 47.7326 28.2123C47.8809 28.2522 48.0423 28.2323 48.1773 28.1558C48.3124 28.0761 48.4079 27.9497 48.4442 27.7968C48.487 27.6439 48.4672 27.4844 48.3915 27.3448L44.2771 20.1551L44.277 20.1584ZM58.5804 19.4437L54.69 4.79501C51.7647 9.27566 47.9863 11.2701 43.6578 12.6561L45.1303 18.2038C49.5642 17.2232 53.8265 17.0404 58.5768 19.4436L58.5804 19.4437ZM32.168 16.0733H4.35231V46.8063H57.6485V20.8828C53.6 18.9117 49.8677 18.9781 45.9974 19.7659L49.8516 26.5002C50.4577 27.5639 50.1283 28.9201 49.1038 29.5782C49.0511 29.6181 48.9951 29.6513 48.9325 29.6779C47.8882 30.2297 46.6002 29.8807 45.9678 28.8769C45.9315 28.8303 45.9019 28.7771 45.8755 28.724L41.4152 20.9293L40.4039 21.2185C39.4749 21.4844 38.5394 21.7536 37.6269 21.9996C36.4838 22.3054 35.2682 22.1492 34.2372 21.5642C34.2207 21.5542 34.2042 21.5475 34.1845 21.5376L34.1878 21.5342C32.2969 20.444 31.4465 18.1474 32.168 16.0733ZM34.2894 15.7043H34.2927C34.6616 15.2656 35.159 14.9531 35.7092 14.8036C36.6513 14.5476 37.5737 14.3149 38.4763 14.0823C39.6951 13.7731 40.881 13.4707 42.0373 13.1449L43.4868 18.5961C42.3239 18.8952 41.148 19.231 39.9456 19.5766C39.0594 19.8326 38.1601 20.0885 37.1884 20.3511C36.4735 20.5439 35.7126 20.4508 35.0669 20.0852L35.0307 20.0619C34.3752 19.683 33.8975 19.0581 33.6999 18.3235C33.5055 17.5856 33.6076 16.8011 33.9865 16.143C34.0524 16.03 34.1281 15.9203 34.2072 15.8139C34.2401 15.7807 34.2665 15.7474 34.2928 15.7109L34.2894 15.7043ZM42.1823 11.3234H0V51.5562H62V24.4762C60.7581 24.4363 59.6875 23.5854 59.3581 22.3789L59.3383 22.3057V47.6643H59.3416C59.3416 47.8903 59.2527 48.1063 59.0946 48.2659C58.9364 48.4254 58.7223 48.5152 58.4983 48.5152H3.50535C3.03758 48.5152 2.66204 48.1329 2.66204 47.6643V15.2192C2.66204 14.7505 3.03758 14.3683 3.50535 14.3683H33.2218C33.7851 13.7866 34.4934 13.3678 35.2741 13.1583C36.2163 12.9024 37.1518 12.6664 38.0709 12.4304C39.4874 12.0681 40.861 11.7191 42.1853 11.3235L42.1823 11.3234ZM48.6586 42.5721H48.6619C48.3325 42.9045 47.7956 42.9045 47.4661 42.5721C47.1367 42.2364 47.1367 41.6979 47.4661 41.3621L51.5805 37.2105L47.4661 33.0623C47.1367 32.7299 47.1367 32.1914 47.4661 31.8557C47.7955 31.5233 48.3324 31.5233 48.6619 31.8557L53.3758 36.6122C53.534 36.7717 53.6229 36.9878 53.6229 37.2138C53.6229 37.4432 53.534 37.6592 53.3758 37.8188L48.6619 42.5753L48.6586 42.5721ZM39.7482 41.3621C40.0776 41.6979 40.0776 42.2363 39.7482 42.5721C39.4188 42.9045 38.8819 42.9045 38.5524 42.5721L33.8385 37.8156C33.6804 37.656 33.5914 37.4399 33.5914 37.2139C33.5914 36.9879 33.6804 36.7685 33.8385 36.609L38.5524 31.8524V31.8558C38.8818 31.5201 39.4187 31.5234 39.7482 31.8558C40.0777 32.1882 40.0776 32.7299 39.7482 33.0624L35.6338 37.214L39.7482 41.3621Z" fill="white"/>
</svg>
