<svg width="67" height="67" viewBox="0 0 67 67" fill="none" xmlns="http://www.w3.org/2000/svg">
<path d="M11.2812 46.5986L12.2216 50.8335L14.5377 48.5174L12.3509 46.3318L11.2812 46.5986Z" fill="#636365"/>
<path d="M3.46464 28.8792V24.2585C2.19049 24.2585 1.1543 25.2947 1.1543 26.5689C1.1543 27.843 2.19049 28.8792 3.46464 28.8792Z" fill="#636365"/>
<path d="M26.6926 61.6896L27.7819 61.5336C28.8377 61.3823 29.785 60.8417 30.4503 60.01L32.1542 57.881C32.1819 57.8463 32.2131 57.8174 32.242 57.7839C31.6275 52.7878 28.1169 48.6327 23.301 47.1841L21.4654 55.4436L17.3276 51.3057V58.9137H15.0172V51.3057L10.8806 55.4424L9.045 47.1841C3.69309 48.7932 0 53.7027 0 59.3411C0 63.5633 3.43664 66.9999 7.65879 66.9999H16.1724V63.3265L4.62069 61.0161V53.1378H6.93103V59.1216L16.9475 61.1247L17.405 60.6673C18.5371 59.5363 20.0411 58.9137 21.6398 58.9137C23.7088 58.9137 25.6056 59.9799 26.6926 61.6896Z" fill="#636365"/>
<path d="M21.6395 61.2241C20.6565 61.2241 19.7335 61.6076 19.0381 62.3019L18.4824 62.8587V67H20.8424C21.0423 64.9207 22.3569 63.1348 24.219 62.2938C23.5444 61.625 22.6272 61.2241 21.6395 61.2241Z" fill="#636365"/>
<path d="M26.5696 30.084L26.5685 22.9358C23.1908 22.4252 19.8581 21.6212 16.6167 20.5342L18.3298 23.1033H15.562C12.904 23.1033 10.4769 21.9239 8.84122 19.9705L8.56051 20.0271C6.94674 20.3494 5.77539 21.7795 5.77539 23.4244V30.0875C5.77655 34.5048 8.39994 38.4844 12.4604 40.2252C13.3094 40.5891 13.8593 41.422 13.8616 42.345V44.5733L16.1719 46.8837L18.4823 44.5733V42.3485C18.48 41.4255 19.0298 40.5914 19.8812 40.2252C23.9451 38.4832 26.5696 34.5037 26.5696 30.084ZM15.1381 28.2415C15.0584 28.0809 15.0168 27.9042 15.0168 27.724V25.4136H17.3271V27.4514L17.8435 28.4841C18.1196 29.0363 18.1635 29.6624 17.9682 30.248C17.773 30.8337 17.3618 31.3073 16.8096 31.5846L15.5331 32.2234L14.4993 30.1568L15.7757 29.518L15.1381 28.2415ZM10.3961 27.724C9.75843 27.724 9.24091 27.2065 9.24091 26.5688C9.24091 25.9311 9.75843 25.4136 10.3961 25.4136C11.0337 25.4136 11.5513 25.9311 11.5513 26.5688C11.5513 27.2076 11.0337 27.724 10.3961 27.724ZM16.1719 38.1205C13.1824 38.1205 11.7326 35.2915 11.6725 35.1714L13.7357 34.1317C13.7449 34.149 14.6217 35.8102 16.1719 35.8102C17.7222 35.8102 18.599 34.149 18.607 34.1317L20.6702 35.1714C20.6113 35.2915 19.1615 38.1205 16.1719 38.1205ZM21.9478 27.724C21.3101 27.724 20.7926 27.2065 20.7926 26.5688C20.7926 25.9311 21.3101 25.4136 21.9478 25.4136C22.5855 25.4136 23.103 25.9311 23.103 26.5688C23.103 27.2076 22.5855 27.724 21.9478 27.724Z" fill="#636365"/>
<path d="M31.1894 19.6378C31.1894 19.5616 31.1663 19.4911 31.1628 19.416C30.479 19.9497 29.6646 20.3286 28.7266 20.5515C28.8178 21.0055 28.879 21.4699 28.879 21.9482C29.7189 21.9482 30.4951 22.1896 31.1744 22.5823C31.1767 22.5223 31.1894 22.4645 31.1894 22.4044V19.6378Z" fill="#636365"/>
<path d="M3.46464 21.9483H3.6795C4.18893 20.0434 5.64676 18.5048 7.56897 17.9191C7.51699 17.8036 7.44999 17.6984 7.40262 17.5806L7.01102 16.601L9.15618 15.7439L9.54778 16.7235C10.3229 18.6619 11.9401 20.0631 13.8878 20.5771C13.1138 19.2394 12.706 17.7285 12.706 16.1725H15.0164C15.0164 16.6461 15.0845 17.1093 15.185 17.5644C18.7996 18.9437 22.5516 19.9637 26.3694 20.5783C25.8969 19.0003 24.6251 17.7435 22.9616 17.3276L22.8242 17.293L23.3833 15.0519L23.5207 15.0866C25.4118 15.5591 26.9481 16.7708 27.8861 18.3592C28.9466 18.1674 29.7529 17.7423 30.3108 17.04C31.5908 15.4262 31.2084 12.9183 31.2038 12.8941C31.1946 12.8329 31.1888 12.7682 31.1888 12.7069V6.78784C27.6216 8.87408 23.3117 9.67808 19.242 8.99884L10.2316 7.49712C8.27016 7.17136 6.2798 7.59877 4.62559 8.70081C2.45156 10.1494 1.1543 12.5741 1.1543 15.1871V18.4828C1.1543 19.7697 1.4015 21.0508 1.86704 22.2498C2.36723 22.0638 2.90092 21.9483 3.46464 21.9483Z" fill="#636365"/>
<path d="M28.8789 24.2585L28.8801 28.8792C30.1531 28.8792 31.1893 27.843 31.1893 26.5689C31.1893 25.2947 30.1531 24.2585 28.8789 24.2585Z" fill="#636365"/>
<path d="M20.1228 50.8335L21.0631 46.5998L19.9934 46.3318L17.8066 48.5174L20.1228 50.8335Z" fill="#636365"/>
<path d="M33.9569 59.3238L32.2531 61.4528C31.218 62.7455 29.7463 63.5864 28.1072 63.8198L26.0775 64.1097C24.5619 64.3269 23.3813 65.5248 23.1445 66.9988H36.965V57.7852C35.7879 57.8579 34.6997 58.3962 33.9569 59.3238Z" fill="#636365"/>
<path d="M53.1377 34.6553H41.5859V50.8277H43.8963V40.4311C43.8963 38.5205 45.4511 36.9656 47.3618 36.9656H53.1377V34.6553Z" fill="#636365"/>
<path d="M61.2249 39.2759H50.6309C50.7579 39.6374 50.8284 40.0256 50.8284 40.4311V41.5862H62.3801V40.4311C62.3801 39.7946 61.8626 39.2759 61.2249 39.2759Z" fill="#636365"/>
<path d="M60.0685 57.7585H39.2754V66.9999H60.0685V57.7585Z" fill="#636365"/>
<path d="M47.3622 39.2759C46.7245 39.2759 46.207 39.7946 46.207 40.4311V50.8276H57.7588V43.8966H48.5174V40.4311C48.5174 39.7946 47.9999 39.2759 47.3622 39.2759Z" fill="#636365"/>
<path d="M38.1191 53.1379L38.1203 55.4483H61.2237V53.1379H38.1203H38.1191Z" fill="#636365"/>
<path d="M65.6056 7.84375L63.554 8.52761C63.3218 8.60501 63.1335 8.76789 63.0238 8.98622C62.914 9.20454 62.8979 9.45291 62.9741 9.68394C63.4315 11.0621 62.9083 12.5857 61.7023 13.3897L60.8694 13.9442C60.5263 14.1729 60.3773 14.6061 60.5078 14.9977L60.7573 15.7463C60.8682 16.079 61.1524 16.3146 61.4978 16.3643L66.6025 17.0932C66.8532 16.0559 66.9999 14.9769 66.9999 13.8622C66.9999 11.7032 66.4893 9.66661 65.6056 7.84375Z" fill="#636365"/>
<path d="M58.5678 16.4785L58.3172 15.7288C57.8597 14.3507 58.383 12.827 59.589 12.023L60.4219 11.4686C60.765 11.2398 60.914 10.8066 60.7834 10.415C60.512 9.59833 60.5732 8.72386 60.9579 7.95336C61.3437 7.18286 62.0068 6.60759 62.8235 6.33612L64.3991 5.81052C61.882 2.29995 57.7777 0 53.1374 0C46.2826 0 40.5887 5.00652 39.4844 11.5517H42.8552C43.8937 11.5517 44.8571 12.0681 45.4347 12.9322L46.7978 14.9768C46.8948 15.1224 47.0392 15.2333 47.2055 15.2887L49.7377 16.1331C49.8174 16.1586 49.9017 16.1724 49.9872 16.1724H51.9348C53.1166 16.1724 54.1805 16.8297 54.7084 17.8867L54.9256 18.321C55.0284 18.5267 55.2167 18.678 55.4408 18.7334L57.7188 19.3029C59.1027 19.6495 60.0684 20.8878 60.0684 22.3122C60.0684 24.023 58.6776 25.4138 56.9668 25.4138H53.7265C53.1143 25.4138 52.5193 25.2347 52.0088 24.894L49.5228 23.2351C49.3923 23.1497 49.2398 23.1034 49.0827 23.1034H45.8575C45.0269 23.1034 44.2472 22.78 43.6638 22.1932L42.4936 21.0253C42.3434 20.8751 42.1459 20.7931 41.9345 20.7931H41.1513C43.5529 24.9298 48.0199 27.7241 53.1374 27.7241C58.8428 27.7241 63.7499 24.2586 65.8743 19.3237L61.1716 18.6514C59.954 18.4781 58.956 17.6453 58.5678 16.4785ZM56.7577 8.78278L55.5517 10.5906C55.4835 10.6923 55.4477 10.8113 55.4477 10.9337C55.4477 12.5486 54.1331 13.8621 52.5193 13.8621H52.1058C50.8432 13.8621 49.7261 13.0569 49.3288 11.8602L48.8852 10.5306C48.817 10.3296 48.6541 10.1771 48.4474 10.1262L46.6303 9.6711C45.8401 9.47357 45.1632 8.95143 44.7728 8.23869C44.3823 7.52595 44.3061 6.67459 44.5625 5.90409L44.8779 4.95338C45.1262 4.2106 45.6472 3.60991 46.3461 3.2599L47.2067 2.82902C48.028 2.42009 49.0053 2.42009 49.8266 2.82902L50.9691 3.40083C51.0546 3.44241 51.1493 3.46552 51.2452 3.46552H53.5578C54.3307 3.46552 55.085 3.77857 55.6291 4.32497L56.3915 5.08622C57.3757 6.06928 57.5293 7.62414 56.7577 8.78278Z" fill="#636365"/>
<path d="M44.1283 19.393L45.2985 20.5609C45.4486 20.7111 45.6462 20.7931 45.8576 20.7931H49.0828C49.695 20.7931 50.29 20.9721 50.8005 21.3129L53.2865 22.9718C53.417 23.0572 53.5695 23.1034 53.7266 23.1034H56.968C57.4035 23.1034 57.7582 22.7488 57.7582 22.3121C57.7582 21.9494 57.5109 21.6329 57.1586 21.5451L54.8806 20.9756C54.0004 20.7561 53.2634 20.1647 52.8579 19.3538L52.6407 18.9194C52.5079 18.6503 52.2364 18.4828 51.9349 18.4828H49.9873C49.6535 18.4828 49.3242 18.4296 49.0066 18.3233L46.4744 17.4789C45.8229 17.2617 45.2534 16.8274 44.8734 16.2556L43.5114 14.2132C43.3659 13.9938 43.1198 13.8621 42.8553 13.8621H39.2754C39.2754 15.4839 39.57 17.0353 40.084 18.4828H41.9346C42.7652 18.4828 43.5438 18.8062 44.1283 19.393Z" fill="#636365"/>
<path d="M53.9956 5.95728C53.8813 5.84176 53.7219 5.77592 53.559 5.77592H51.2463C50.7935 5.77592 50.3418 5.66849 49.9364 5.46633L48.7939 4.89452C48.7061 4.85178 48.6125 4.82983 48.5178 4.82983C48.4231 4.82983 48.3295 4.85178 48.2417 4.89568L47.3811 5.3254C47.2332 5.39933 47.1235 5.5264 47.0704 5.68235L46.755 6.63421C46.6811 6.85716 46.7504 7.03852 46.7989 7.12747C46.8474 7.21642 46.9629 7.37237 47.1905 7.43013L49.0087 7.88527C49.986 8.13016 50.7588 8.84637 51.0765 9.80054L51.5201 11.1301C51.6044 11.382 51.8401 11.5518 52.1058 11.5518H52.5193C52.8613 11.5518 53.1385 11.2745 53.1385 10.9338C53.1385 10.3539 53.3083 9.79245 53.6306 9.30959L54.8366 7.50059C55.0006 7.2557 54.9671 6.92763 54.7604 6.7197L53.9956 5.95728Z" fill="#636365"/>
</svg>
